<?xml version="1.0" encoding="utf-8"?>
<!-- Generator: Adobe Illustrator 27.8.1, SVG Export Plug-In . SVG Version: 6.00 Build 0)  -->
<svg version="1.1" id="Capa_1" xmlns="http://www.w3.org/2000/svg" xmlns:xlink="http://www.w3.org/1999/xlink" x="0px" y="0px"
	 viewBox="0 0 2834.6 2267.7" style="enable-background:new 0 0 2834.6 2267.7;" xml:space="preserve">
<style type="text/css">
	.st0{fill:#F3F3F3;}
	.st1{fill:#E2E2E0;}
	.st2{fill:#040405;}
	.st3{fill:#BBBDBB;}
	.st4{fill:#1E1E1E;}
	.st5{fill:#5C798C;}
	.st6{fill:#83B7D8;}
	.st7{fill:#1D1D1D;}
</style>
<g>
	<g>
		<g>
			<path class="st0" d="M945.9,165.7c-5.1-6.3-8.6-13.5-12.7-20.4c-1.6-2.6-3.4-3.1-6.1-3.5c-5.6-0.7-9.9,2.2-14.6,4.2
				c-15.5,6.7-31.2,13.1-46.2,20.8c-0.8,2.3,0.9,3.9,2,5.5c4.5,6.9,9.2,13.6,13.7,20.4c2.1,5,6.3,8.5,8.9,13.1
				c4.2,7.3,9.5,13.9,13.7,21.2c-9.9-5.1-19.6-10.1-29.2-15.4c-1.1,0.1-1.9,0.7-2.6,1.6c-2,6-4.8,11.8-5.9,18.1
				c2.7,5.9,3,12.3,4.3,18.4c1.2,5.3,0.9,11,3.8,15.8c0.3,0.1,0.5,0.2,0.8,0.3c0.8,4.7,1,9.5,2.5,14.1c-0.2,0.3-0.3,0.6-0.4,1
				c-0.4,1-0.8,2.1-0.8,3.2c0,3.3,0.9,6.5,1.4,9.7c1,6.6,3.1,13.1,2.9,19.9c1.7,3.2,2.5,6.7,3.2,10.2c2.5,13.1,4.2,26.4,7.5,39.4
				c0.1,0.3,0.2,0.7,0.4,1c-0.4,0.3-0.6,0.7-0.7,1.3c1,8.7,2.8,17.2,4.4,25.8c0.2,1.2,0.5,2.4,1.8,2.9c0.6,0.1,1.1,0,1.6-0.4
				c2.3-8.2,4-16.4,5.1-24.8c1.8-4.9,2.4-10.1,3.2-15.3c1.8-6.5,3.3-13.1,4.1-19.8c3.5-16.3,7-32.5,10.4-48.8
				c7.5-35.6,15-71.3,22.2-106.9C945.4,174.3,947.4,170.2,945.9,165.7z M901.4,332.1c0-0.1,0-0.2,0-0.3c0.1,0.1,0.2,0.1,0.4,0.2
				C901.7,332,901.6,332,901.4,332.1z"/>
			<path class="st0" d="M829.6,192.4c3-5.4,6.9-10.3,10.5-15.2c1-3.7,4.9-6.1,4.7-10.4c-0.7-0.2-1.4-0.2-2-0.5
				c-16.7-7.6-33.3-15.2-49.9-22.9c-6-2.8-7.8-2.3-11.4,3c-4,6-7.8,12.1-12.2,17.7c-1.7,2.2-2.2,5.4-5.2,6.5
				c-1.3,0.9-0.7,2.1-0.4,3.2c1,4.5,2,9,2.9,13.6c9.7,46.9,19.5,93.7,29.2,140.6c4.7,22.7,9.2,45.3,13.8,68c0.6,0.6,0.5,1.9,1.3,2.1
				c1.2,0.2,1.7-1,1.9-2c1.5-5.3,1.9-10.8,2.7-16.2c2.1-6.6,2.9-13.4,3.8-20.3c2.2-12.3,3.5-24.8,6.7-36.9
				c0.9-6.9,2.2-13.8,3.6-20.6c0-1-0.7-1.9-0.5-3c2.6-9.8,3.2-19.9,5.3-29.8c0.3-1.6,0.4-3.3,1-4.8c1.7-6.7,2.3-13.6,3.8-20.3
				c0.1-3.2,0.4-6.5,0.9-9.6c1.4-7.7-1.9-13.8-6-19.7c-2.7-0.7-4.6,0.9-6.6,2.1c-8.7,5-17.5,9.9-27.1,15.9
				c9-12.8,17.4-24.5,25.4-36.5C827.3,195.5,826.7,192.3,829.6,192.4z"/>
		</g>
		<g>
			<g>
				<path class="st1" d="M478,1049.2c1-1.3,2.5-0.9,3.8-0.9c28.3,0,56.6-0.1,84.9,0c1.4,0,3.1-0.5,4.3,0.9
					c-2.2,4.7-0.9,9.7-0.9,14.6c-0.1,3.6-0.8,5.1-4.8,5.1c-27.1-0.2-54.3-0.2-81.4,0c-3.9,0-5-1.3-4.9-5
					C479,1059,479.9,1054,478,1049.2z"/>
			</g>
			<g>
				<path class="st1" d="M1142,1049.2c0.7-1.1,1.8-0.7,2.8-0.7c28.8,0,57.5,0,86.3,0c1.3,0,2.8-0.4,3.9,0.8c-3,2.5-0.8,5.8-0.9,8.6
					c-0.3,11.1-0.1,11.1-11.2,11.1c-24.9,0-49.8-0.1-74.7,0.1c-4,0-5.4-0.9-5.3-5.1C1143,1059,1144.3,1053.9,1142,1049.2z"/>
			</g>
		</g>
		<g>
			<path class="st2" d="M1030.1,320.4c4.4-6.8,8.9-13.7,12.5-20.8c5.4-10.5,12.3-20.2,17.4-31c2.9-6.1,3.7-6.8-2.1-10
				c-8.7-4.8-15.8-11.8-24.5-16.6c-3.3-1.8-6.1-4.4-9.1-6.7c-1.5-1.1-2.7-2.7-1.8-4.4c3-5.2,3.2-11.5,6.4-16.7
				c1.7-2.8,1.6-5.4-1.4-7.4c-1.1-1-2.5-0.9-3.9-1c-2.6,0.1-5.2,0-6.9,2.5c-5.2,7.5-10.7,14.6-17,21.2c-2.5,2.7-0.9,5.8,1,6.5
				c3.5,1.1,5.5,4,8.4,5.5c11.5,6.1,21.1,15,32.2,21.5c2.2,1.3,3.2,3.4,2.3,5.7c-3.1,8.1-8.5,15-11.9,22.9c-2,4.7-5.5,8.8-7.5,13.5
				c-2.8,6.3-5.7,12.6-9.2,18.3c-5.2,8.3-9.5,17.1-14.7,25.3c-6.6,10.5-10.8,22.3-17.8,32.8c-5.3,7.8-8.5,17.1-13.2,25.5
				c-4.9,8.7-9.2,17.9-14.5,26.4c-2.9,4.7-5.9,9.7-7.9,14.5c-5,11.7-13.5,21.6-17.2,34c-0.2,0.6-0.5,1.3-1,1.8
				c-5,5-6.6,12-10.4,17.8c-5.4,8.1-9.3,17.1-13.8,25.7c-0.8-0.3-1.4,0-1.7,0.6c-1.7,4.1-4.5,7.6-6.5,11.7
				c-3.6,7.4-7.6,14.5-12.2,21.3c-2.7,3.9-5.7,8.4-4.4,13.9c-2.8,1.6-4.1,4-4.1,7.2c2.5-1.8,3-4.7,4.1-7.2c4.6-3.7,7.3-9.1,9.7-14
				c7.6-16,17.8-30.4,26.3-45.8c7.3-13.2,15.7-25.8,23.2-39c9-15.8,18.1-31.6,27.3-47.3c5.7-9.8,12.1-19.3,17.6-29.2
				c4.6-8.3,9.3-16.7,14.2-24.8c7.4-12.1,13.8-24.7,21.7-36.4C1023.5,332.7,1026.2,326.2,1030.1,320.4z"/>
			<path class="st2" d="M623.7,565.9c-0.7-3.8,1.2-7.4,1-11.2c-0.5-9-1-18-1-27c-0.1-21.1-1.6-42.1-2.9-63.1
				c-1.3-21.6-5.7-42.8-8-64.2c-1.1-10.2-3.8-20-4.9-30.1c-1.1-9.3-4.1-18.4-6.7-27.2c-3.7-12.5-5.8-25.8-13.4-37
				c-0.6-0.8,0.2-2.8-1.8-2.4c-1.3,0.3-1.7,1.9-1.4,3c1.5,5.2,0,11.1,3.8,15.7c1.1,1.3,1.2,3.1,1.3,4.9c0.5,8.7,3.7,16.9,4.8,25.5
				c0.8,6.2,3.1,12.1,3.4,18.5c0.6,10.6,4,20.7,4.7,31.3c0.6,9.4,3.5,18.7,3.5,28.2c0,9.4,1.9,18.7,2.5,28.1
				c1,14.6,2.5,29.3,3.8,43.9c0.6,7,0.2,14.1,1.3,21c1.4,8.7,1.3,17.6,2.1,26.3c1,10.5,1.3,21.5,0.5,32.2c-0.2,3.5,0.5,6.7,1.6,10.1
				c1.5-5.6,1-11.4,3.7-16.4C624.6,573.1,622.8,569.2,623.7,565.9z"/>
			<path class="st2" d="M802.4,523.9c-2.8-2.5-4-5.8-5.6-9.1c-4.3-9.2-8.9-18.2-13.8-27.1c-3.4-6.3-7.8-12.1-11.2-18.4
				c-6.1-11.1-10-23.2-17-33.8c-2.3-3.5-4.9-6.9-6.3-10.8c-1.7-4.9-6.1-8.3-6.6-14c-0.2-2.7-2.2-5.8-4.7-7.7
				c-1.8-1.3-2.6-2.8-3.5-4.7c-2.3-4.8-4.4-9.9-7.3-14.2c-3.9-5.6-5.4-12.2-8.9-17.8c-2.2-3.4-2.8-8.1-5-10.9
				c-4.6-6-8.7-12.2-11.6-19.1c-1.9-4.7-6.5-8-7.7-12.6c-1.8-7.4-6-13.5-9.8-19.5c-5-8.1-8.3-17.1-14.2-24.7c-2-2.6-1.3-6.6-5-8.9
				c-2.3-1.4,1.8-10,5.7-10.8c9.8-2,14.8-11.1,23.3-14.9c4.6-2,8.3-6.1,12.6-9.1c4.1-2.9,4.5-4.8,0.9-8.1
				c-5.4-4.9-8.7-11.3-13.1-16.9c-2.5-3.2-4.3-5.4-8.4-5c-1.3,0.3-2.9-0.6-3.9,0.9c-1,1.2-1.6,2.5-1,4.1c2.1,5.9,3.7,11.9,6.2,17.6
				c1.7,4,1.3,6.4-2.2,8.7c-7.2,4.7-13.9,10.1-21.4,14.3c-3.9,2.2-6,6.4-10.2,7.9c-6.7,2.5-7.2,4.2-2.4,9.3c0.5,0.6,0.7,1.5,1.1,2.2
				c2,4.5,4,9.1,7.2,13c5.9,7.3,8.4,16.5,14.4,23.9c4.8,5.9,6.4,14.4,11,20.4c5.7,7.4,9.1,15.9,13.9,23.7
				c4.6,7.3,9.2,14.7,12.8,22.6c1.4,3.1,4.8,5.3,6.6,8.3c5.3,9.1,10.1,18.4,15.2,27.5c1,1.8,3.4,2.6,3.5,4.9c0.3,4.1,3,7,4.9,10.3
				c4.4,7.7,9.3,15.1,13.7,22.8c5.2,9,9.6,18.5,15.6,26.9c4.6,6.5,9.3,12.7,11.3,20.7c0.4,1.8,0.4,6.2,4.9,4.5
				c0.1,0,0.9,1.1,0.9,1.7c0.3,5.5,4.7,9,6.7,13.6c1.8,4.1,5.9,7.1,6.9,11c0.8,3.4,2,4.8,5.7,6.5
				C804.4,529.9,805.1,526.2,802.4,523.9z"/>
			<path class="st2" d="M1117.5,311.8c-4.5,12.7-8.6,25.5-11.6,38.6c-1.5,6.4-2.5,13.2-4.7,19.2c-3.4,9.2-2.8,18.8-5.6,27.9
				c-2.2,7.3-1.4,14.9-2.9,22.3c-3.5,17.6-3.7,35.5-5.3,53.3c-1.1,12.5-2.5,25-2.2,37.6c0.2,6.8-1.7,13.8-1.5,20.3
				c0.4,11.6-0.7,23.3,1.4,34.8c1.7,8.6,3.4,17.1,5.1,25.7c1.6,0.3,0.5,2.6,2.1,3c0.3-26.7,3.1-53.1,4-79.6
				c0.9-26.6,4.4-53,6.4-79.6c2.1-26.4,6.9-52.4,11.6-78.4c4.6-25.8,10.9-51.3,17.6-76.7C1127.5,290.9,1121.4,300.8,1117.5,311.8z"
				/>
			<path class="st2" d="M1088.9,894.2c-10.7-1-21.4-2.1-32.1-3.1c-12.8-1.1-25.5-2.1-38.3-3.1c-1.8-0.1-2.8-0.8-3.4-2.6
				c-1.6-5.1-3.9-9.8-5.8-14.8c-2.3-6.3-4.6-12.6-7.1-19.6c-1.6,6.8,0.5,12.5,0.7,18.3c0.3,9.5,1.4,18.9,2.2,28.4
				c0.1,1.3-0.2,3.8,2,3.6c7.4-0.6,14.6,2.3,21.9,2c6.1-0.3,12.3-0.3,18.2-0.1c10.6,0.3,21.3,0,31.9,0.4c4.4-1.9,8.6-4.2,12.6-6.9
				C1091.4,895,1090.5,894.4,1088.9,894.2z"/>
			<path class="st2" d="M705.3,864.7c-1.3-0.7-2.2,0.2-3.1,1.1c-1.1,1.1-1.2,2.4-1.1,3.8c0.1,6.3-4.4,11-5.7,16.9
				c-0.3,1.5-2.1,1.4-3.5,1.6c-16.2,1.8-32.6,2-48.7,5.2c-7,1.4-14,0.9-21,0.9c-2.6,0-4.1,0.5-2.8,3.5c2.8,2.1,5.8,3.8,9.2,5
				c4.4,0.1,8.8,1.1,13.3,1c8.4-0.3,16.7-1.3,25.2-1.2c9.6,0.1,19.2,0.8,28.8-0.8c6.2-1,7.2-2,8.5-8c1.8-8.7-0.3-17.5,1.9-26.1
				C706.4,866.5,706.4,865.3,705.3,864.7z"/>
			<path class="st2" d="M541.2,1041.4c-8.2,0.6-16.2-1.3-24.4,0.1c-4.6,0.8-9.8,1.2-14.6,1c-6.1-0.3-12.1-1.8-18.2-0.4
				c-1.4,0.3-3.7-0.6-3.6,1.7c0.1,2.1,2.4,1.3,3.8,1.4c7,0.8,14-2.1,21-0.8c7,1.3,14.1,1,21,0.6c5.3-0.3,10.4-0.4,15.7-0.1
				c7.3,0.5,15,1.6,22.2-1.8C556.7,1039.5,548.6,1040.8,541.2,1041.4z"/>
			<path class="st2" d="M585.6,299.3c-0.5-2.2-0.2-4.8-2.8-5.2c-1.6-0.3-1.6,1.5-1.5,2.6c0.2,1.9,0.5,3.9,2.9,4.2
				C585.8,301.2,585.9,300.2,585.6,299.3z"/>
		</g>
		<g>
			<path class="st3" d="M798.2,234c0.3,0.3,0.6,0.6,1,0.8c11.4-6.5,22.8-13,34.1-19.5c-1.9-6.9-4.5-13.5-8.3-19.6
				C816.1,208.5,807.2,221.2,798.2,234z"/>
			<path class="st3" d="M882.6,192.6c-3.4,5.8-4.7,12.4-7.2,18.5c-0.1,0-0.2,0.1-0.3,0.4c-0.1,0.2,0.1,0.4,0.4,0.6
				c0.5,1.4,1.4,2.4,2.7,3c6.9,3.7,13.9,7.4,20.8,11c2.5,1.3,5,2.5,7.5,3.8c0.3-0.3,0.6-0.6,0.9-0.9
				C899.4,216.6,891.6,204.2,882.6,192.6z"/>
		</g>
		<path class="st4" d="M1246.5,1045.1c-0.6-6.2-1.3-12.4-2-18.6c-1.7-15.3-3-30.7-3.9-46c-1-16.6-2.7-33.2-3.3-49.9
			c-0.5-13.5-1.9-26.9-1.9-40.3c-0.1-21.2-2.2-42.4-2.3-63.6c0-5.8-0.7-11.6-0.7-17.3c0-16.3-2.2-32.4-2.4-48.6
			c-0.1-12.8-1.2-25.5-1.7-38.3c-0.7-16-1.8-32-2.4-48c-0.1-3.8,0.6-7.7-0.1-11.3c-2.9-14.9-1.8-30.1-4.1-45
			c-1-6.6-0.2-13.3-1.2-19.9c-2-13.8-3.5-27.7-5-41.6c-0.8-7.7-2-15.3-3-23c-1.4-10.2-2.6-20.3-4-30.5c-1.6-11.1-3.2-22.2-5.1-33.3
			c-1.4-8.4-2.9-16.8-4.4-25.2c-1.9-11-3.6-22.1-5.6-33.1c-1.7-8.8-4.2-17.5-5.6-26.3c-1.8-10.7-4.5-21.2-6.7-31.8
			c-1.7-8.2-3.6-16.5-5.8-24.6c-3.1-11.9-5.5-24-8.7-35.8c-2.4-8.8-4.6-17.6-6.9-26.4c-1.7-6.5-2-14.2-10.3-16.8
			c-1.6-0.5-3.2-0.9-4.7-1.7c-14.7-8.3-30.6-14.1-46.2-20.3c-13.8-5.4-28.1-9.9-42.3-14.2c-9.4-2.8-18.6-6.8-28.6-6.8
			c-0.5,2.1,1.7,4,0.3,6.4c-2.5,4.4-3.3,9.4-5.1,14c-2.3,5.9-1.9,7,3.4,10.7c10.3,7.1,20,15,30.9,21.4c4.5,2.7,4.1,3.7,2,8.4
			c-2.8,6.5-7.3,12-10.5,18.2c-2.5,4.9-4.7,10.1-7.8,14.5c-10.6,14.7-18.3,31-27.7,46.4c-7,11.4-13.7,23-20.2,34.7
			c-9,16-19.1,31.4-28,47.4c-10.4,18.8-22,36.9-32.2,55.8c-7.3,13.6-16.1,26.4-23.9,39.8c-9.4,16.1-18.4,32.3-28.2,48.2
			c1.7-4.7,3.8-9.2,6.4-13.5c6.2-10.2,11.6-20.9,17.4-31.4c0,0,0.1,0,0.1,0c1.2-0.1,1.8-0.9,2.3-1.8c5.7-10.2,10.8-20.7,16.8-30.8
			c3.8-6.4,6.3-13.8,10.3-19.9c6.8-10.4,11.2-22,17.8-32.5c3.8-6.1,7-13,10.3-19.5c5.4-10.5,12.1-20.4,16.8-31.2
			c3.7-8.4,9.8-15.3,13.5-23.7c5.5-12.6,12.8-24.2,19.4-36.2c1.7-3.2,4-6,5.4-9.4c4.3-10.5,11-19.8,15.8-30
			c3.3-7.2,7.9-13.6,11-20.9c2.1-5,1.6-6.9-2.5-10.3c-4.3-3.5-9.5-5.6-13.6-9.3c-7.3-6.3-16-10.5-23.8-16.2c-3.9-2.8-4.5-4-1.3-7.6
			c3.5-4,7.4-7.8,10.2-12.3c2.8-4.4,5.8-8.5,10.9-10.3c-1.6-1-3.2-2.5-4.9-2.8c-7.6-1.3-14.5-2.8-20.6-8.8
			c-10.1-10.1-21.7-18.7-32.6-28c-4.8-4.1-10-7.5-14.3-12.1c-1-1.1-2.7-1.9-3.2,0.8c-0.6,3.6-1.3,7.2-2,10.8
			c-0.6,1.4-1.1,2.9-1.3,4.4c-2.5,13.7-5.6,27.3-8.4,41c-8.5,41-16.9,81.9-25.4,122.9c-1.6,6.5-2.5,13.2-4.1,19.8
			c-1.3,5.1-2,10.4-3.1,15.6c-1.9,8.1-3.2,16.3-5.2,24.4c-0.3,1.8-0.3,3.7-0.9,5.5c-0.8,10.7-4.8,20.8-6.2,31.4
			c-1.4,6.1,0,12.5-2.7,18.4c-0.2,0.4-0.3,0.9-0.5,1.3c-1.2,3-0.3,6.6-2.5,9.3c-3.1,8.5-3.7,17.6-5.7,26.4c0.2,2.6-0.1,5.5-1.5,7.4
			c-2.8,3.9-3,8.1-2.6,12.6c-0.1,0.3-0.1,0.5-0.2,0.8c0-0.4,0-0.8-0.1-1.2c-1.3,1.2-2.5-3.5-3.9-0.1c0.8,1.6,2,2.8,3.4,3.7
			c-0.1,0.4-0.2,0.8-0.3,1.1c-0.2,3.2-1.8,6.2-0.5,9.5c0.1,0.1,0.3,0.2,0.4,0.2c-1.6-0.1-2,1.2-2,2.3c-0.6,6.6-3.7,12.7-4.2,19.3
			c-0.5,2.4-0.7,4.8,0.1,7.1c0.7,2.2,0.3,3.8-1.7,4.7c-3.9,1.8-3.9,4.7-2.9,8.1c0.6,2,1.2,3.9,1.9,5.8c0.7,1.8-0.8,1.4-1.7,1.5
			c-2.7,0.2-3.1,2.4-3.7,4.3c-1.4,3.9-2.6,7.8-3.8,11.7c-0.5,1.6-0.8,4.2-3.7,2.6c-0.3-0.2-0.6-0.4-1-0.6c-0.2-1-0.5-2-0.7-3.1
			c0.1-0.1,0.3-0.2,0.4-0.4c1.2-1,0.6-2.2,0.2-3.3c-2.8-8.1-5.9-16.2-7.4-24.7c-0.3-1.6-1-2.5-2.3-2.6c1.4-1.7,1.8-3.7,0.4-6
			c-1.4-1.5-1.6-3.3-1.6-5.2c-0.1-4.8-0.9-9.3-2.8-13.8c-1.9-4.5-2.3-9.5,0-14.3c-1.9-4.1-4.3-7.8-5.1-12.5
			c-2.2-12.6-5.1-25.1-7.7-37.6c-1.2-2.6-1.3-5.4-1.7-8.2c0.1-1.2,0.1-2.4-0.3-3.6c-2.9-7.2-4.4-14.4-1.5-21.9
			c-4.8-6.6-7.5-14-7.7-22.2c-0.1-4.6-3.3-8.3-3-12.8c0-1.4-0.3-2.7-0.6-4.1c-8.4-40.6-16.8-81.2-25.4-121.8
			c-6.9-32.8-13-65.7-20.8-98.3c0.3-2.9-1-5.5-1.6-8.3c-0.7-3,0.3-7.7-2.3-8.6c-2.9-1-5.1,3.2-7.5,5.3
			c-13.4,11.4-26.8,22.9-40.4,34.1c-3.2,2.6-5.7,6.5-9.9,7.6c-5.8,1.5-11.7,2.1-17,5.2c1.6,1.9,4.4,1.6,6,3.7
			c4.8,6.4,8.8,13.5,14.6,19.2c1.7,1.7,2,3.8-0.2,5.3c-5,3.7-9.5,7.9-14.8,11.1c-1.9,1.1-4.5,1.1-5.9,3c-3.7,5.4-9.4,7.8-15.1,10.3
			c-7.7,3.3-9.2,9-4.5,15.5c0.4,0.6,0.7,1.1,1,1.8c4.5,9.6,10,18.7,15.1,28c3.6,6.6,7.5,13,10.4,20c2.8,6.7,8.4,12.1,9.7,19.6
			c0.1,0.4,0.7,0.7,1.1,1.1c3.9,3.7,6.6,8.5,8.7,13.1c5.5,11.9,11.9,23.4,17.5,35.3c2.9,6,8.1,10.5,10.3,16.4
			c2.7,7.1,7,13.2,9.8,20.1c0.5,1.3,1.1,2.5,2,3.6c5,5.6,8.1,12.5,10.8,19.2c5.3,12.9,13,24.5,19.5,36.7c2.7,5.1,6.5,9.5,8.6,15.2
			c1.7,4.6,4,9,6.3,13.4c-2.8-5.3-6.5-10-8.2-15.9c-0.3-1-1-2-2-2.2c-3.1-0.8-3.6-3.4-4.3-5.9c-0.5-2-1.2-3.8-2.1-5.7
			c-3.8-8.6-10.6-15.1-14.9-23.4c-7.9-15.2-17.6-29.5-25.8-44.6c-4.7-8.6-9.4-17.1-14.2-25.6c-7.3-12.8-15.9-24.8-22.9-37.7
			c-7.4-13.7-16.1-26.7-23.4-40.5c-2.7-5.1-5.6-10-9-14.7c-3.1-4.4-4.9-10.1-8.2-14.7c-4.6-6.3-7.1-13.7-11.7-19.9
			c-1.7-2.3-1.2-4.2,1.5-5.4c1.9-0.8,3.8-1.4,5.4-2.9c8.1-7.7,18.1-12.7,27.2-19.1c5-3.5,5.8-5.7,3.8-11.5
			c-2.4-6.9-6.5-13.3-6.3-20.9c-4.8,0.3-9.6,1.2-14.2,2.6c-10.6,3.2-21.1,6.5-31.7,9.8c-11.2,3.5-22.1,7.7-33.1,11.8
			c-13.5,5.1-26.5,11.2-39.4,17.6c-5.1,2.5-10.1,4.2-11.6,11.4c-3.1,14.4-7.7,28.5-11.3,42.8c-2.9,11.4-5.2,23-7.9,34.6
			c-2.8,12.3-6,24.5-8.7,36.9c-2.9,13.5-5.4,27.2-7.9,40.8c-2.3,12.1-4.6,24.3-6.6,36.5c-1.9,11.9-3.6,23.9-5.5,35.8
			c-2.1,12.9-4.1,25.8-5.8,38.7c-0.9,6.8-1.2,13.8-2.4,20.6c-1.8,10.3-2.9,20.7-3.7,31c-0.7,9.6-1.4,19.4-2.6,28.8
			c-2.1,15.9-2.7,31.9-4.5,47.9c-1.2,11.1-1.6,22.4-2.2,33.6c-1,17.5-1.9,35-3,52.5c-1.1,16.5-0.9,33.1-2,49.6
			c-1.3,18.7-0.2,37.5-2.2,56.3c-1.3,12.6,0.6,25.3-1.1,38c-1.5,10.9-1.3,22-2,33.1c-0.8,12.7-1.5,25.5-2.1,38.2
			c-0.5,12.9-1.9,25.8-2.5,38.7c-0.2,4.9,0.2,10-1,14.7c-2.8,11.1-1.5,22.5-3.7,33.6c-1.3,6.5-0.4,6.7,6.5,6.7c2.9,0,5.8,0,8.8,0
			c3.7,0.6,7.5,0.6,11.2,0.6c23.3,0,46.7,0,70,0c3.9,0,7.9,0,11.8-0.6c7.2,0,7.1,0,7.2-7.2c0-4.1,0.5-8.1,0.8-12.2
			c1.6-18.6,1.4-37.4,3.1-56.1c1.1-12.3,1.7-24.9,1.9-37.2c0.3-21.9,3.7-43.5,3.5-65.3c0-1.9-0.3-3.9,0.1-5.7
			c3-15,2.4-30.3,3.7-45.5c0.8-8.9,2-17.8,2.6-26.8c0.8-14.5,2.5-28.9,4-43.4c0.8-8.2,1.8-16.4,3-24.6c1.3-8.6,2.1-17.4,2.9-26
			c0.7-7.1,2.1-14,2.6-21.1c0.9-10.8,3.7-21.5,4.8-32.3c1.2-12.4,4.2-24.5,5.6-36.8c1.2-11,4-21.9,5.1-33c-2.4-0.4-2.3,1.6-2.7,2.9
			c-0.6,1.8-0.9,3.6-1,5.5c-4.1-92.8-8.8-185.5-31.5-276.3c2.4,2.1,4.1,4.7,4.6,7.5c1.4,7.7,5,14.6,7,22c2.8,10.4,5.1,21,7.8,31.5
			c0.7,2.7,0.3,5.4,1.4,8.1c1.9,4.6,2.8,9.6,3.3,14.5c1.3,11.2,2.4,22.4,4.4,33.6c3.8,21.2,4.6,42.7,6,64.2
			c0.9,13.9,1.6,27.8,1.3,41.8c-0.2,10.1,2,20.2,0.2,30.4c-0.3,1.5-0.2,3.1,1.2,4.2c1-0.2,0.2-2.2,2-1.8c-0.5,5.3,2.2,10.2,2.1,15.5
			c-0.1,7.8,1.5,15.5,2.4,23.2c2.3,18.3,4.2,36.8,4.4,55.1c0.5,44.7,1.5,89.4-0.5,134.1c-0.4,8.5-1.3,17-1.5,25.6
			c-0.1,3.6,0.2,7.6-1.1,11c-2.6,7.2-4.5,14.6-6.4,21.9c-3.3,12.7-7,25.3-10.3,37.9c-1.6,6.2-0.5,7.9,4.6,9.3
			c1.5-0.9,2.9-1.9,4.7-1.8c9.3,0.3,18.4-2,27.6-2.7c12.8-1,25.6-3,38.5-3.5c4.2-0.2,6.7-2,8-5.9c1.8-5.2,4.7-10,5.5-15.7
			c-0.3,8.5,0.7,17-1.1,25.3c-0.9,4.2-2.6,6.6-7.4,6.9c-20.6,1.1-41.2,1.1-61.8,1.4c-1.7,0-3.5-0.5-4.8,1c0.4,1.1,2.6,1.2,2.2,2.6
			c-1.8,5.9,0.1,12-1,17.8c-2.8,13.9-3,28.1-4.7,42.2c-2,15.9-2.9,32-4.3,48c-1.6,17.7-3.5,35.3-5,53c-1.7,18.9-3.1,37.9-5.3,56.8
			c-1.2,10.1-1,10.2,9.2,12.1c4.8,0.9,8.5,2.2,8.4,8.2c-0.2,13.1,0.5,26.2,1.7,39.3c1.2,13.4,1.4,26.9,2,40.3
			c0.9,20.3,2,40.5,3.3,60.7c0.9,14.3,0.9,28.6,2,42.9c1.1,14.9,0.3,30,2.1,45c1.3,10.5,0,21.1,1,31.8c1.3,14.1,1.6,28.3,2,42.4
			c0.6,20.7,1.1,41.3,2.2,62c1,17.8-0.1,35.6,0.9,53.5c1.4,24-0.1,48,1.1,72.1c1.5,30.2-1.1,60.4-0.9,90.7
			c0.1,9.2-0.4,18.5-0.7,27.7c-0.7,22.9-0.9,45.8-2.1,68.7c-0.6,12.1-1.3,24.3-1.5,36.4c-0.1,4.9-0.5,9.8-0.9,14.7
			c-0.9,13.2-2.1,26.4-3,39.5c-0.3,3.8,0.4,7.6-0.1,11.4c-2.5,18.6-3.4,37.4-5.1,56.1c-0.8,8.4-1.8,16.8-2.4,25.2
			c-0.9,12.7-3.1,25.3-4.8,38c-0.9,6.7-2,13.3-2.5,20.1c-0.5,7.2-1.7,14.3-2.7,21.5c-0.4,3,0.7,5.1,2.9,7.1
			c12.6,11.8,25,23.9,37.4,35.8c0.7,0,1.4,0,2.1,0c4.2-1.3,8.5-0.3,12.8-0.7c11.6-1.1,23.2-2.5,34.8-3.7c13.5-1.4,26.9-3.3,40.4-4.9
			c5.9-0.7,7.2-2.5,8.4-8.1c3.2-15.5,6.2-31.1,9-46.6c3.4-19.1,6.3-38.4,9-57.6c1.7-12.6,3-25.3,4.8-37.8c3-20.3,4.6-40.7,6.2-61.1
			c1.3-15.8,2.7-31.5,3.8-47.3c1.3-17.5,2.6-35,3.2-52.5c0.6-16.9,2.1-33.6,2.7-50.5c0.7-21.1,1.6-42.3,2.5-63.4
			c0.6-13.4,1.2-26.8,1.5-40.2c0.2-8.2,0.6-16.5,0.9-24.7c0.7-20.5,2.6-40.8,2.9-61.3c0.2-16.7,1.4-33.4,2.6-50
			c2.2-31.2,3.8-62.5,6.6-93.7c2.4-27.7,4.8-55.5,7.8-83.2c3.4-31,7.5-61.8,12.5-92.6c3.6-22.6,7-45.2,12.3-67.5
			c1.3-5.7,2.6-11.5,6.4-16.2c3.1-3.9,6.7-4.1,10-0.4c3.3,3.6,5.3,8,6.7,12.7c2.3,7.8,4.3,15.6,6.1,23.5
			c8.9,39.3,17.3,78.6,24.6,118.3c6,32.5,11.3,65.1,16.2,97.8c3.1,20.9,5.8,41.9,8.5,62.9c2.1,16,3.8,32.1,5.7,48.1
			c2.4,19.8,3.9,39.7,6,59.6c1.7,16.1,3.2,32.2,4.2,48.3c0.7,12.5,2.5,25,2.7,37.6c0.3,14.3,2.4,28.4,2.8,42.7
			c0.4,15.1,1.5,30.2,2.4,45.3c1,17.2,1.9,34.3,2.5,51.5c0.3,10.3,1.1,20.6,1.4,30.9c0.7,25.1,2.1,50.2,2.8,75.3
			c0.1,3.4,0.3,6.9,0.4,10.3c0.6,13.6,2.3,27.1,2.7,40.7c0.5,16.2,2.1,32.2,3.4,48.3c0.8,9.3,1.6,18.5,2.7,27.7
			c2.4,21.4,4.5,42.8,8.4,64c0.7,3.5,2.5,5.7,5.9,6.3c9.5,1.6,18.9,3.8,28.4,5.6c14.5,2.7,28.9,5.9,43.7,6.9c4.5,0,9,0,13.4,0
			c15.5-9.4,31.9-17.2,47.8-25.8c3-1.6,3.8-3.3,4-6.6c0.3-5.2-2.3-9.9-2.2-15c0.2-12.8-2.6-25.3-3.4-38c-1-15.5-2.7-31-3.9-46.5
			c-0.4-5.4-0.3-11-1.2-16.3c-2.7-16.5-1.8-33.2-3.9-49.7c-0.8-6.7,0.4-13.6-1-20.4c-2.6-12.6-0.7-25.5-1.9-38.2
			c-1.4-14.6-1.7-29.3-2.1-43.9c-0.6-23.4-0.9-46.9-2.1-70.3c-1.3-24.7,0.6-49.4-1-74.1c-1.3-19.5-0.6-39.1-0.9-58.6
			c-1.3-88.2,1-176.5-1.3-264.8c-0.3-11.5,0.1-23.1-0.1-34.6c-0.6-39.9,1.2-79.7-0.9-119.6c-0.6-12.1-0.1-24.3-1-36.4
			c-0.6-8,0.4-16.2-0.3-24.3c-0.4-5.7,1.1-8.8,7-8.9c2.6,0,3.9-1,3.4-3.7c-1.1-5.3-1.3-10.7-2-16c-1-6.5,0.1-13.1-1.1-19.4
			c-2.3-12-1.5-24.3-4-36.2c-1.2-5.9-0.1-12-1.2-17.8c-2.4-12.3-2.5-24.8-3.7-37.2c-0.6-5.7-0.5-11.7-1.5-17.3
			c-2.1-12.2-2.3-24.5-3.6-36.8c-1.3-12.4-2.7-24.9-3.2-37.4c-0.1-2.9-2.4-5.8-0.3-8.7c-2.3-2.1-5.2-1.4-7.9-1.4
			c-19.9-0.3-39.8,0.4-59.6-2.1c-2.6-0.3-5-0.7-5.1-3.8c-0.1-5.2-1.5-10.2-1.6-15.3c-0.2-8.9-1-17.6-1.9-23.9
			c1.8,8.3,6.4,18.2,10.6,28.3c1.1,2.6,3.1,4,6,4.2c15.6,1,31.1,2.8,46.7,4.3c8.5,0.8,17.1,1.4,25.5,3c3.4-0.9,5.4-1.3,3.4-6.3
			c-2.2-5.7-4.4-11.9-5.4-18c-1.8-10.4-4.6-20.6-8-30.2c-5.2-14.7-5.2-29.7-6.5-44.7c-0.9-10,0-20.1-0.9-30.2c-1.2-13.6,0-27.3-1-41
			c-0.7-10.3-0.3-20.8,0.6-31.2c1.1-12.7,0.6-25.6,1.1-38.4c0.4-13.1,1.8-26.1,2.5-39.2c0.2-4.3,0.2-8.8,1.1-13.1
			c2-9.5,2.6-19.3,3.8-28.9c0.4-3.4,0.1-6.9,3.1-9.5c1.5-1.8,1.4-3.9,1.1-5.9c-0.6-3.8-0.3-7.6-0.6-11.3c-1.1-13.1,1.3-26,1.1-39
			c-0.1-3.3-0.6-6.5-0.2-9.8c2.1-16,3.1-32.2,3.9-48.2c0.8-15.4,3.6-30.4,5.3-45.5c1.4-12.5,3.9-25,7-37.4
			c6.9-28.4,14.5-56.6,27.7-82.9c-4.8,10.1-6.2,21.3-9.3,31.9c-3.8,13-5.8,26.5-8.3,39.9c-3.9,21.3-7.5,42.7-10.3,64.1
			c-2.3,17.4-3,34.9-5,52.3c-1.5,13.1-2.7,26.3-2.4,39.6c0.2,13.6-2.7,27-2.7,40.6c0,12.4-2.3,24.6-0.9,37c0.1,1.1-1-0.2-1.3,0.4
			c0.4,4.4,0.6,8.9,1.2,13.2c1.6,11.1,3.4,22.2,5.1,33.3c1.6,10.1,3.4,20.2,4.5,30.4c0.6,5.6,1,11.4,2.2,17
			c2.5,11.2,3.3,22.6,4.5,33.9c0.9,8.2,1.4,16.6,2.6,24.7c2.1,13.7,3,27.5,4.5,41.1c1.8,17.1,2.8,34.4,4.3,51.6
			c1.3,14.9,2.2,29.8,3.1,44.7c0.7,11.4,1.4,22.7,2,34.1c0.9,15.8,1.9,31.5,3.1,47.3c1,13.6,0.7,27.2,2.1,40.8
			c1.1,11.4,0.3,22.9,1.1,34.3c0.8,11.2,0.3,11.2,11.5,11.1c3.9,0.6,7.8,0.7,11.8,0.7c19,0,38.1,0,57.1,0c8,0,16.1,0.5,24.1-0.6
			c2.4,0,4.8-0.2,7.2,0C1245.6,1049.7,1246.8,1048.6,1246.5,1045.1z"/>
		<g>
			<g>
				<path class="st5" d="M869.4,543C869.4,543,869.4,543,869.4,543c-4.4-0.1-6.1-3.9-8.8-6.5c-7.8-7.5-14.8-15.8-23.3-22.6
					c-1,1.9-3.1,2.7-2.2,6c1,3.7,0.8,7.5,2.9,11.3c1.7,3.1,1.7,7.3,1.4,11.2c-0.1,1.7-0.8,4,2,4.5c0.2-1.6-0.2-4.1,2.5-1.4
					c6.2,6.1,12.3,12.2,18.6,18c1.5,1.3,0.6,3.1,0.8,4.5c0.3,0.5,0.6,1,0.9,1.5c1.1,1.3,2.4,1.5,3.6,0.4c1-0.9,0.1-1.8-0.6-2.6
					c-1.3-1.6-1.6-3.7-2.1-5.7c-0.7-2.9-2.5-5.7,2.5-6.8c1.1-0.3,4.6-2.6,2-6.1C868.6,547.6,868.6,545,869.4,543z"/>
				<path class="st5" d="M876.4,485.6c-1-1.2-1.6-2.7-2.8-3.7c-5.8-4.5-10-10.6-15.5-15.5c-4-3.9-8-7.8-12-11.7
					c-8.4-8.2-16.8-16.3-25.2-24.5c-2.5,5.1-3.3,9.9-1,15.7c1.1,2.7,3.6,5.9,2.2,9.5c1.1,0.7,2.6,1,2.8,2.7c2.4,2.6,4.9,5.1,7.5,7.6
					c4.1,3.9,8.2,7.9,12.2,11.9c2.5,2.5,5,5,7.4,7.5c2.5,2.5,4.9,5.1,7.3,7.6c2.4,2.6,4.9,5.1,7.3,7.7c1.2,1.3,2.4,2.6,3.6,3.8
					c0.3,0.3,0.6,0.6,0.9,1c0.2,0.3,0.4,0.6,0.6,0.8c0.5,0.6,1.1,1.2,1.7,1.8c0.4,0.4,0.8,0.8,1.3,1.2c0.2,0.2,0.4,0.3,0.6,0.4
					c0.3,0.1,0.4,0.1,0.6-0.1c0.3-0.3,0.5-0.7,0.6-1.2c0.2-0.9,0.1-1.9,0.4-2.8c0.3-1,0.4-2,0.6-3c0.4-2,0.9-4.1,1.3-6.1
					c0.3-1.6,0.7-3.2,1-4.7c0.2-0.8,0.3-1.6,0.5-2.4c0.1-0.7,0.5-1.5,0.4-2.2C878.9,487.3,877.6,487.1,876.4,485.6z"/>
				<path class="st5" d="M898.3,394.1c-1-0.7-0.7-1.8-0.9-2.8c-1.7-8.7-3.3-17.4-5-26c-21.2-21.1-42.4-42.2-63.6-63.3
					c-0.9,0.3-1.5,0.9-1.6,1.7c-0.9,6.3-1.7,12.6-2.5,19v0c4.2,3.5,6.6,8.6,10.8,12.2c10.1,8.5,18.8,18.5,28.1,27.7
					c11.3,11.2,22.4,22.7,33.8,33.9c0,0,0,0,0,0c0,0,0,0,0,0c0.8,0.6,1.5,1.3,1,2.5c0,0,0,0,0,0c1.2-1.4,0.8-3.2,1-4.8
					C899,394.1,898.7,394.1,898.3,394.1z"/>
				<path class="st5" d="M874.4,280.7c-12.1-12.2-24.2-24.4-36.3-36.6c-2.4,6.7-2.8,13.7-3.9,20.6c9.6,10.5,19.7,20.5,30.1,30.2
					c5.2,4.4,10.1,9.1,14.4,14.4c0,0,0,0,0,0c0,0,0,0,0,0c0.9,1.6,1.3,3.6,3.3,4.3v0c1.8-1.1,1.1-2.9,0.8-4.1
					c-1.5-8.6-3.3-17.2-5-25.9v0C876.7,282.6,875.4,281.8,874.4,280.7z"/>
				<path class="st5" d="M847.5,211.4c6.9,6.4,12.7,13.9,20.2,19.6c2.4-5.8,5-11.4,6-17.7c0.6-0.5,1.3-0.9,1.9-1.4
					c0-0.2,0-0.3-0.1-0.5c0-0.1,0-0.3-0.1-0.4c-2.4,0.2-3-2.5-5-3v0c0,0,0,0,0,0c-11.2-9.5-20.6-20.9-31.2-31.1
					c-4.3,4.5-8.5,9.1-10.3,15.3v0C835.1,198.7,841,205.3,847.5,211.4z"/>
				<path class="st5" d="M867.3,408.6c-1.7-1-3.2-2.1-3.1-4.4c0,0,0,0,0,0c0,0,0,0,0,0c-1.6-1-3.5-1.8-4.6-3.1
					c-4.4-5.1-9.5-9.6-14-14.8c-7.7-9.1-16.8-16.9-25.2-25.4c-0.9-0.9-1.3-1.4-2.4-0.7c-1.1,6.5-2.2,13-3.3,19.5
					c0.9,4.1,4.5,5.9,7,8.6c14.2,15,30,28.6,43.7,44.2c7.1,6.4,14.2,12.7,20.7,19.7c2.6,1.6,0.5,4,0.9,6c0.1,0.4,0.1,0.8,0.2,1.2
					c0,0,0,0,0,0c2-2.9,1.2-6.3,1.9-9.4c0,0,0,0,0,0c4.2-5.6,2.3-12.2,3.2-18.4c0,0,0,0,0,0c-1.4,0-2.5-0.6-3.6-1.6
					C881.1,423.2,874.1,416,867.3,408.6z"/>
			</g>
			<g>
				<path class="st6" d="M870.5,208.1C870.5,208.1,870.5,208.1,870.5,208.1L870.5,208.1c2,0.5,2.6,3.2,5,3c0,0.1,0,0.3,0.1,0.4
					c0.2-0.1,0.3-0.1,0.5-0.2c3.3-5.9,5.6-12.1,6.6-18.8c0.1-1.3-0.8-2.1-1.4-3.1c-5-7.5-9.9-15-14.9-22.6c-0.3-0.1-0.6-0.1-0.9-0.2
					c-4.5-2.7-8.9,1-13.4,0.3c-2.4,0-4.7-0.1-7.1-0.1c-1.2,3.7-5.4,5.8-5.5,10.2C849.9,187.2,859.2,198.6,870.5,208.1z"/>
				<path class="st6" d="M863.4,568.2c-0.2-1.4,0.6-3.2-0.8-4.5c-6.3-5.9-12.4-12-18.6-18c-2.7-2.7-2.3-0.1-2.5,1.4
					c1.1,2.3,0.7,4.3-0.9,6.2c1.3,0.9,3.1,1,2.4,3.7c-0.7,2.4,0.5,5,1.6,7.2c3.1,6,3.7,12.9,6.1,19.1c-1.5,2.2-0.3,3.7,1.2,5.2
					c1.1,2.1,2.1,4.3,4.1,0.6c0.9-1.7,1.5-3.4,2.2-5.1c1.9-4.7,1.6-10.5,6-14.1C863.7,569.3,863.4,568.8,863.4,568.2z"/>
				<path class="st6" d="M875.6,509.8C875.6,509.8,875.7,509.8,875.6,509.8C875.6,509.8,875.6,509.8,875.6,509.8
					C875.6,509.8,875.6,509.8,875.6,509.8c-0.4-0.5-0.6-1.1-0.7-1.6c-0.1-0.7-0.1-1.4,0.3-2.1c-0.1,0.1-0.3,0.1-0.4,0.2
					c-0.7,0.1-1.3-0.2-1.9-0.4c-0.4-0.1-0.9-0.3-1.3-0.3c-8.9-9.4-17.7-18.8-26.9-28c-4-4-8.1-7.9-12.2-11.9c-2.6-2.5-5.1-5-7.5-7.6
					v0c-0.2-1.7-1.7-2-2.8-2.7c0.6,2.9,1.1,5.8,1.7,8.7c0,0,0,0,0,0l0,0c2.5,1.5-0.1,3.4,0.4,5.1c2.8,8.2,3.9,16.8,5.7,25.3
					c1.5,6.6,0.7,14.7,7.5,19.4c8.5,6.7,15.5,15.1,23.3,22.6c2.6,2.5,4.3,6.4,8.8,6.5c0,0,0,0,0,0c0,0,0,0,0,0
					c1.7-7.6,3.4-15.2,5.1-22.8C874.4,516.7,876.3,513.4,875.6,509.8z"/>
				<path class="st6" d="M838.7,235.8c-0.6,2.5-2.7,5.4-0.6,8.2c12.1,12.2,24.2,24.4,36.3,36.6c1.1,1.1,2.3,2,3.5,2.9v0
					c1-0.4,0.7-1.4,0.9-2.1c0-5.4,0.1-10.8-3-15.5c-1.1-5.7-2-11.5-3.3-17.2c-1.4-5.9-0.8-12.5-4.8-17.7
					c-7.5-5.8-13.3-13.2-20.2-19.6c-6.5-6-12.4-12.7-18.5-19c-2.9-0.8-2.5,2.3-3.9,3.3c1.7,7,4.5,13.5,8.3,19.6
					C836.3,221.8,840.6,227.8,838.7,235.8z"/>
				<path class="st6" d="M897.4,396.5C897.4,396.5,897.4,396.5,897.4,396.5C897.4,396.5,897.4,396.5,897.4,396.5
					c-11.4-11.2-22.5-22.7-33.8-33.9c-9.3-9.3-18.1-19.2-28.1-27.7c-4.2-3.6-6.6-8.7-10.8-12.2c-3.5,12.2-4.8,24.8-6.7,37.3
					c1.1-0.7,1.6-0.1,2.4,0.7c8.4,8.5,17.5,16.4,25.2,25.4c4.4,5.2,9.5,9.7,14,14.8c1.2,1.4,3.1,2.1,4.6,3.1c0,0,0,0,0,0
					c0,0,0,0,0,0c-0.1,2.3,1.5,3.4,3.1,4.4c6.8,7.4,13.7,14.6,21.3,21.3c1.1,1,2.2,1.6,3.6,1.6c0,0,0,0,0,0c0,0,0,0,0,0
					c2.1-10.8,6.1-21.3,6.3-32.5c0,0,0,0,0,0c0,0,0,0,0,0C898.9,397.8,898.2,397.1,897.4,396.5z"/>
				<path class="st6" d="M886,452.1c-6.5-7-13.6-13.4-20.7-19.7c-13.7-15.6-29.4-29.2-43.7-44.2c-2.5-2.7-6.1-4.6-7-8.6
					c-1,5.5-2,11-3.1,16.5c-0.1,0.6,0.6,1.9-0.8,1.7c-0.5-0.1-0.8-1-1.2-1.6c0.6,4.5,2.7,8.7,3.6,13.2c0.5,2.5-1.4,4.5-0.1,6.8
					c2.6,4.8,3.8,10.2,7.9,14.1v0c0,0,0,0,0,0c8.4,8.2,16.8,16.3,25.2,24.5c4,3.9,8,7.8,12,11.7c0,0,0,0,0,0
					c5.5,4.8,9.7,11,15.5,15.5c0,0,0,0,0,0c2.2,2,2.9,6.1,7.2,5.2c0.4-1.7,0.8-3.3,1.2-5c1.9-7.6,2.2-15.5,5.2-22.9c0,0,0,0,0,0
					c-0.1-0.4-0.1-0.8-0.2-1.2C886.5,456.1,888.6,453.7,886,452.1z"/>
				<path class="st6" d="M878.7,309.3C878.7,309.3,878.7,309.3,878.7,309.3C878.7,309.3,878.7,309.3,878.7,309.3
					c-4.3-5.3-9.2-10-14.4-14.4c-10.4-9.7-20.5-19.7-30.1-30.2c-1.7,1.2-0.8,2.9-0.8,4.4v0c-0.4,0.6-0.9,1.1-1,1.7
					c-1.5,8.8-3,17.6-4.2,26.5c-0.2,1.4-2,3.5,0.6,4.7c21.2,21.1,42.4,42.2,63.6,63.3c0.3-0.4,0.6-0.8,0.9-1.1
					c-2.1-11.9-3.9-24-6.6-35.8c-1.1-5,0.1-10.9-4.8-14.7C880,312.9,879.6,310.9,878.7,309.3z"/>
			</g>
		</g>
	</g>
	<g>
		<path class="st2" d="M2500.5,2023.7c-0.1-7-2.3-13.7-5.8-19.6c-6.1-10.3-13.8-19.6-19.3-30.2c-10.6-20.4-20.2-41.4-27.9-63.2
			c-1.8-5.2-3.3-10.5-5.9-15.5c-2.6-5.1-4.4-10.5-6.7-15.8c-4.4-10.2-7.2-21-10.4-31.7c-6.2-20.7-12.5-41.4-18.2-62.3
			c-5.6-20.5-10.7-41.2-15.9-61.9c-4.5-18.1-9.1-36.1-13.2-54.3c-5.9-25.9-11.3-51.9-17-77.9c-4.7-21.5-9.6-43-14-64.5
			c-5.9-29.1-11.4-58.3-17.1-87.5c-3.3-16.8-6.6-33.6-9.8-50.5c-3.9-21.1-7.8-42.1-11.7-63.2c-3.3-17.3-6.3-34.7-9.8-52
			c-4.6-23-8.2-46.2-12.3-69.3c-3.4-19.4-7.1-38.7-10.4-58.1c-3.7-21.3-7-42.6-10.6-63.9c-2.5-14.9-5.5-29.7-8-44.6
			c-3.6-21.1-6.8-42.2-10.4-63.3c-5-29.5-10.2-58.9-15.3-88.4c-3.7-21.5-7.7-42.8-11.7-64.2c-3.3-17.6-7.4-35-11.6-52.5
			c-6.7-28.1-15.3-55.6-25.3-82.6c-6.2-16.7-13.4-33.1-21.5-49c-4.8-9.4-9.9-18.6-15.6-27.5c-5.8-9.1-12.3-17.7-18.7-26.5
			c-8-10.8-17.7-19.3-29.1-25.7c-4.3-2.4-5-4.6-3.7-8.8c6-18.8,11.9-37.6,17.9-56.4c9.2-28.8,18.4-57.5,27.6-86.3
			c5.2-16.2,10.3-32.4,15.5-48.6c0.6-0.3,1.1-0.7,1.7-0.8c20.4-3.9,40.3-9.6,59-18.7c14.8-7.2,29-15.2,40.9-26.8
			c2.7-2.7,5.1-5.5,4.4-9.8c-0.6-3.5-1.2-7-1.7-10.6c-3.2-19.3-6.4-38.6-8.5-58.1c-1-8.9-2.3-17.7-8.5-24.5
			c-10.4-11.3-21.7-21-36.1-27.6c-16.4-7.5-32.1-16.7-47.6-26c-2.8-1.7-5.9-1.6-9,0.6c-7.6,5.2-15.3,10.4-23.3,14.8
			c-15,8.3-30.6,15.2-46.8,20.8c-9.2,3.2-18.7,5.5-28.1,8.2c-5.5,1.6-11.2,2.7-16.8,3.7c-5.7,1.1-11.4,2.6-17.2,3.5
			c-5.4,0.8-10.9,0.7-16.2,1.8c-10.7,2.3-21.6,0.5-32.3,3.2c-7.4,1.9-14.5-2.9-22.1-2c-6.7,0.9-13.2-1.3-19.7-2.2
			c-11.5-1.6-22.8-4-34.2-6.4c-15.9-3.4-31.2-8.3-46.2-14.1c-12.6-4.9-25.1-10.3-36.8-17.4c-6.9-4.2-13.6-8.6-20.3-13.2
			c-3.5-2.4-7.4-3.3-11.5-1.2c-4.2,2.2-8.6,4-12.7,6.3c-19.4,10.8-40.5,18.8-58.6,31.8c-9.6,6.9-18,15.3-21.7,27.1
			c-2.7,8.6-2.8,17.7-4.2,26.5c-2.6,16-4,32.1-7.1,48c-1.1,5.6-3.9,12,2.9,16.8c2.3,1.6,4.8,3.1,7.1,5c14.7,12,31.6,20.2,49.1,26.9
			c14.7,5.6,29.7,10.2,45.1,13.2c3.2,0.6,4.6,2.2,5.5,5c3.3,10.5,6.7,20.9,10,31.3c8.8,27.6,17.7,55.1,26.2,82.8
			c4.7,15.3,10.6,30.3,14.5,45.8c2.5,9.8,6.2,19.2,9.5,28.8c1,3,1,5.1-2.5,6.5c-3.4,1.4-6.9,3.1-9.5,5.6
			c-13.1,12.4-26.2,24.8-35.8,40.3c-9.2,14.9-17.8,30.1-25.3,45.9c-7.8,16.4-14.9,33.1-21,50.1c-5.3,14.8-10,29.7-14.6,44.8
			c-7.5,24.7-12.8,49.8-18.1,75c-3.9,18.4-6.9,37.1-10.3,55.6c-2.1,11.5-4.2,23.1-6.1,34.6c-3.9,23.8-7.6,47.6-11.6,71.4
			c-2.9,17.2-6.1,34.4-9.1,51.6c-4.2,24.8-8.3,49.6-12.6,74.4c-3.2,18.5-6.8,37-10.1,55.6c-3.8,21.2-7.3,42.5-11.1,63.8
			c-3.4,19.2-7.1,38.4-10.5,57.6c-3.4,18.9-6.5,37.8-10,56.7c-3.1,16.7-6.4,33.3-9.6,50c-4,21-7.8,42.1-12,63
			c-5.1,25.8-10.6,51.5-15.7,77.2c-5.8,29.2-11.9,58.4-18.5,87.4c-5.3,23.4-10.4,46.9-15.9,70.3c-3.8,16.2-7.8,32.2-12,48.3
			c-6.4,24.7-12.1,49.6-19.7,73.9c-7.7,24.6-12,50.3-24.3,73.4c-2.3,4.3-3.6,9.4-5.1,14.1c-4.4,13.8-9.9,27.3-15.6,40.5
			c-5,11.4-9.5,23.1-16.2,33.9c-4.7,7.5-8.7,15.5-13.9,22.6c-3,4.1-6.2,7.6-8,12.6c-6.3,17.6-6.8,34.8,1,52
			c5.5,12.2,13.8,21.9,25.8,27.8c10,4.9,20.3,9.3,31.6,10.4c7.5,0.8,15,2.2,22.5,3.1c12.7,1.5,25-2.4,37.6-2.4c4.8,0,10-1.3,15-2.1
			c9.3-1.5,18.5-3.5,27.8-4.7c14.8-1.9,28.1,3.1,41.1,9.6c15.6,7.7,32.2,11.5,49.5,12c4.8,0.1,9.6-0.2,14.4,0.1
			c18,1.1,35.5-1.8,53-5.2c8.7-1.7,17.3-4.1,26-6c10.3-2.3,20.6-5.1,31.1-6.5c9.5-1.3,19.4-2.2,28.9,0.9c12.4,4,24.4,9,36.7,13.3
			c13.2,4.7,26.6,8.8,40.3,11.9c8.2,1.8,16.7,3.5,24.8,3.6c16.8,0.4,33.6,1.6,50.6-1.2c15.1-2.5,30-5.4,44.7-9.6
			c15.3-4.4,29.8-11.1,44.8-16.2c6.7-2.3,13.8-4.9,20.5-4.5c7.9,0.4,16,1.6,23.9,3.7c9.6,2.6,19.4,4.3,29,6.7
			c9,2.2,18.2,3.7,27.2,5.6c6.9,1.5,14.2,3.1,20.9,3.1c20.8,0.2,41.8,2.4,62.5-3.1c10-2.7,19.3-6.4,28.6-10.6
			c7-3.2,13.9-6.8,21.9-7.5c18-1.5,35.3,3.7,53,5.6c10.7,1.2,21.4,2.6,32.2,3.6c6.5,0.6,12.8-1.5,19.2-1.9c11.3-0.7,22.3-2.6,33-6.2
			c14.7-4.9,25.8-14.3,34.6-26.8c1.6-2.2,2.8-4.5,3-7.3c0.8-2.2,2.6-3.8,3.2-6.2C2501.2,2043.1,2500.7,2033.4,2500.5,2023.7z"/>
		<path class="st7" d="M2153.1,353.2c1-1,2.2-0.2,3.4,0v0l0,0c6.5,2.2,12.3-1.5,18.1-2.8c16.3-3.7,31.9-10,46.8-17.7
			c1.9-1,4-1.6,5.9-2.9c6.4-4.6,13.4-8.5,19.6-13.3c5.9-4.6,12.9-9.1,10.9-18.5c-1.4-7-3.3-13.9-3.7-21.1c-0.1-1.6,0.4-3.9-1.5-5.2
			c-1.6-1.6-1.3-3.2,0-4.8c-1.7-3.6-1.5-7.7-2-11.4c-1.1-7.8-0.4-15.8-4.9-22.8c0-0.1-0.1-0.1-0.1-0.2c-0.1-0.2-0.1-0.6,0-0.8
			c0,0,0-0.1,0-0.1c3.5-7.3-0.4-13-4.4-18.6c-1.8-2.5-3.9-4.7-6.2-6.8c-6.4-5.9-12.2-12.5-20.1-16.9c-5.9-3.3-12.4-5.1-18-8.7
			c-12.7-8.1-26.7-13.9-39.2-22.3c-2-1.3-4.3-1.4-6.3-0.1c-6,3.5-11.9,7.4-17.6,11.1c-9.4,6.1-19.4,10.8-29.4,15.5
			c-8.3,3.9-16.9,7.3-25.6,10.2c-4.6,1.5-9,3.6-13.7,4.5c-7.6,1.6-15.2,3.3-22.3,6.4c-2.5,2-5.4,0.4-8.1,0.9c0,0,0,0,0,0
			c0,0,0,0,0,0c-7.9,1.9-16.1,1.9-23.9,4.2c-3.2,2-6.8,0.7-10.1,0.9c0,0,0,0,0,0c0,0,0,0,0,0c-0.4,0.4-0.9,0.8-1.3,1.2
			c-0.2,0.1-0.5,0.2-0.7,0.3c-4.9,1.7-10,0.2-15.1,0.6c-2.2,0.2-4.4,0-6.6,0c-7.3,0.9-14.6,2.5-21.7-1c-5.8,1.7-11.5,1.5-17.3,0
			c-0.9-0.1-1.8-0.3-2.2-1.2c-3-0.3-6.2,1.2-9.1-0.8c0,0,0,0,0,0c-2.6,0.3-3.9-3-6.8-2.2c-5.2,1.4-10.1-0.9-15.1-1.8
			c-9.7-1.7-19.3-4-28.7-7.2c-6.1-2.1-12.6-3-18.7-5.4c-9.7-3.9-19.6-7.6-29.4-11.3c-0.2-0.1-0.4-0.1-0.7-0.2
			c-1.4,0-3.5,1.5-3.4-1.7c-1.2-0.6-2.4-1.3-3.6-1.6c-3-0.8-6.8-0.4-7.4-4.9c0-0.3-1.2-0.5-1.7-0.8c-4.6-3-10.7-3.8-14.3-8.2
			c-3.6-4.4-9.1-5-13.3-7.9c-0.9-0.6-1.6-1-2.7-0.3c-5.4,3.7-12.1,4.8-17.3,8.8c-4.8,3.6-11,4.3-15.8,7.9c-4.5,3.3-9.6,5.5-14.7,7.8
			c-4.8,2.2-10.3,3.5-14.5,6.5c-6.9,4.8-13.7,9.9-19.2,16.4c-2.3,2.7-6.2,3.9-7.4,7.3c-2.5,7.5-7,14.4-6.8,22.7
			c0.1,3.2,0.3,6.6-0.6,9.6c-2.7,9.3-2.9,18.9-4.7,28.3c-1.9,9.6-2.3,19.5-4.4,29.1c-0.7,3.1,0,5.8,2.3,7.3
			c6,3.8,11.1,9.1,17.3,12.5c7.4,4.1,14.8,8.3,22.5,12.1c19.6,9.7,40.1,15.9,61.4,20.2c2.7,0.6,6,1.1,6.7,4.4
			c1.9,9.1,6.2,17.3,8.5,26.2c0.7,2.7,1.3,5.2,1,8c0,0.2,0,0.3-0.1,0.5c2.2,0.9,3.1,3.4,3.1,4.9c0.1,3.9,1.9,7.1,3.1,10.5
			c2.4,7.1,5.5,14,7.6,21.1c1.7,5.9,2.5,12,5.1,17.7c2.1,4.5,4.2,9.5,5,14.1c1.4,7.8,4.7,15,6.5,22.7c3.1,13.6,9.1,26.4,12.9,39.9
			c2.6,9.2,5.7,18.3,8.5,27.4c1.2,3.8,0.3,6.7-3.6,8.2c-3.4,1.2-6.2,3.1-8.8,5.7c-2.9,2.9-5.6,6.4-8.7,8.6
			c-15.7,11-24.8,27.4-34.8,42.8c-4,6.2-7.2,13.3-10.9,19.9c-3.3,5.8-5.5,12.1-8.7,17.9c-5.3,9.5-7.8,20.1-13,29.6
			c-1.1,2-1,4.4-2.2,6.6c-2.6,4.7-5.6,9.8-6.1,15c-0.9,9.9-6.8,18-8.5,27.8c-1,5.9-4.1,12.1-6.1,18.3c1.2,1.4,2.2,2.7-0.3,3.8
			c-3.1,7.4-3.6,15.6-6.8,23.1c-1.1,2.5-0.4,5.8-1.1,8.8c-1.2,5.5-4,10.4-4.5,16.1c-1.1,12.4-3.7,24.6-6.8,36.4
			c-2,7.4-1.2,15.1-3.8,22.2c-1.5,4.2,0.7,8.8-1.8,12.5c-2.1,3.1-2.4,6.6-2.9,10.1c-0.5,3-0.1,6.1-0.5,9c-0.6,4.8-1.8,9.5-3.2,14.1
			c-1.5,4.7-0.4,10-2.2,14.2c-2.5,5.9-1.6,12.1-2.8,18c-1.4,6.5-3.4,13.1-3.6,19.9c-0.2,5.6-3.5,10.4-3.1,16.1c1.4,1.7,1.6,3.3,0,5
			c-1.7,7.1-2.9,14.3-3.9,21.6c-0.2,1.7,0.4,3.7,0.3,5.2c0,0.2-0.1,0.5-0.1,0.7c-0.1,0.2-0.2,0.5-0.3,0.6c-5.6,7-2.5,15.6-4.8,23.2
			c-1.7,5.7-2.5,12.1-3.6,18.2c-1,5.8-1.3,11.7-2.8,17.5c-1.5,5.9-2.3,11.9-3,17.9c-0.7,6.3-2.5,12.4-3.7,18.7
			c-1.2,6.2-0.5,12.6-2.3,18.4c-2.3,7.4-3.8,15-4.5,22.6c-0.7,8-2.9,15.7-3.7,23.7c-0.6,5.7-2.7,11.5-3.4,17.2
			c-1.1,8.3-3,16.4-4.2,24.7c-1.4,9.5-4.3,18.8-4.8,28.6c-0.3,6-2.1,12.1-3.5,18c-1.6,6.9-2.5,14-3.9,20.9c-1.5,7.3-2.1,14.8-4.1,22
			c-0.8,2.8-1,5.7-1.7,8.5c-1.7,7.3-2,14.9-3.4,22.3c-1.3,7-3.5,13.8-5,20.7c-0.7,3.2-2.1,7.2-1.4,9.6c1.3,4.8-1.3,8.6-1.7,12.7
			c-0.6,6.2-2.9,12.5-4.3,18.7c1.7,1.6,0.7,3.6,0.7,5.5c0,0-0.4,0.1-0.5,0c-0.2-0.2-0.4-0.4-0.6-0.6c-1,3.9-2,8.2-2.2,11.9
			c-0.4,8.2-4.4,15.3-4.6,23.7c-0.3,12.6-5.6,24.6-7.1,37.3c-0.8,6.7-2.6,13.9-4.4,20.7c-1.2,4.9-3.1,9.9-3.2,15.4
			c-0.1,4.3-0.5,9.1-2.1,13.4c-2.3,6.4-4.2,12.9-5.1,19.6c-1.1,9.3-2.9,18.4-5.7,27.4c-1.7,5.4-2.4,11.1-3.4,16.7
			c-0.9,5.1-0.7,10.7-2.8,15.3c-1.7,3.8-2.2,7.4-2.5,11.3c-0.1,1.5,0.3,3.4-0.4,4.5c-4.9,7.2-4.5,15.9-6.2,23.8
			c-1.7,8-3.1,16.4-5.3,24.1c-2.2,7.6-3,15.5-5.4,23.1c-1,3.3-1.9,6.8-2.8,10.2c-2.3,8.6-2.6,17.9-5.8,26
			c-3.4,8.7-3.5,17.9-6.7,26.6c-3.1,8.4-5,17.3-7.3,26.1c-1.1,4.1-0.1,8.7-2.4,12.3c-4.3,6.7-3.4,14.9-6.9,21.8
			c-1.4,2.7-3,5.9-2.7,8.7c0.8,7.2-3.9,12.8-5,19.5c-1.4,8.4-4.9,16.4-7.4,24.6c-2.1,6.7-2.9,14.3-7.3,20.1
			c-2.5,3.3-2.2,6.6-2.3,10.1c-0.5,1.3-1,2.6-1.5,3.9c-1.4-0.8-0.4-2-0.7-2.9c-3,8.2-6,16.5-9.1,24.7l0,0c0,0,0,0,0,0
			c3.9,1-0.5,2.5,0.5,3.7c-1.2-1.2-0.7-2.4-0.5-3.7c0,0,0,0,0,0c0,0,0,0,0,0c-3.5,4.2-3,10.1-6.1,14.5c3.7,0.2,0.8,2.3,1,3.6
			c0,0,0,0,0,0c0,0,0,0,0,0c-3,2.2-5.9,4.6-5.4,8.9c0.2,1.2,0.9,2.6-0.3,3.6c-0.6,0.6-1.1,0-1.4-0.7c-1.7,0.9-2.1,2.5-2.1,4.2
			c2.9,0.3,0.9,2.4,0.8,3.1c-0.2,1.4-1.3,0.8-1.9-0.2c-4,2.3-2.4,5.9-2.1,9.3c-1,1.9-2.1,3.8-3.1,5.7c0,0,0,0,0,0
			c-0.1,0.2-0.1,0.4-0.1,0.7c-1.4,0.8-1.7,2.3-2.3,3.7c-1.3-0.9-0.3-1.8-0.2-2.7c-1.3,0.1-2.1,0.9-2.3,2.1c1.4,1.4,1.7,2.7-0.4,3.8
			c-1.2,1.3,0,3.6-1.8,4.7c0,0,0,0,0,0c-3.4,1.8-6.4,3.9-6.2,8.4c0.1,2.5-1.9,3.6-3.7,5c-3,2.4-6.6,4.6-7.5,8.9
			c1.7,1.9,1.3,3.2-1.1,3.8c-2.7,3.1-2,6.9-2.2,10.5c-1.6,1.7-0.8,3.8-0.9,5.7c-0.1,1.5-0.1,2.7-2.1,2.3c0,0.4,0,0.8,0,1.2
			c0,3.4,0,6.9,0,10.3l0.2,0.1c3-0.1,1.7,2.2,1.8,3.5c0.1,1.8-0.1,3.6-0.2,5.5c1.3,4.2,0.3,9.3,4.5,12.4c0-1.3,0-2.5,0-4.6
			c0.9,2.1,1.5,3.3,2,4.6c1.9,1,0.8,2.6,0.6,3.9c2.1,2.9,3.2,6.5,6.5,8.5c1.9-0.1,3.3,0.4,2.9,2.7c-0.5,3.1,1.4,4.1,4,4.5
			c2.7-0.9,4.8-0.7,5.2,2.8c0,0,0,0,0,0c0.3,1-0.4,2.2,1.4,2.8c6.6,2.4,13.2,5.1,19.7,7.6c1.6-1.1,3.2-1.7,4.8,0.1
			c2.4,0.6,5.1-1,7.2,1.1c1.3,0.7,4-1.2,4,2c4.7-0.1,9.3,0,13.7,2c0.2-0.1,0.5-0.2,0.7-0.3c5.1-1.7,10.4-0.2,15.5-0.7
			c1.8-0.2,3.7,0,5.5,0c0,0,0,0,0,0c0,0,0,0,0,0c4-0.3,7.9-0.5,11.9-0.8c2.4-0.2,5.1,1.1,7.2-1c0,0,0,0,0,0c0,0,0,0,0,0
			c0.9-1.6,2.7-1.3,4.1-2.1c0.1-0.1,0.1-0.1,0.2-0.1c3.1,0,6.2,0,9.2-0.1c1-0.3,2-0.7,3.1-1c2.7,0.5,5.6-1,8.1,1
			c1.3-0.9,3.2-0.6,4.2-2.1c1.7-1.5,3.3-1.5,5,0c2.3-0.2,3.9-2.3,6.5-2.2c7.1,0.2,14.3,0.1,21.4,0.2c1.6-1.4,3.2-2.7,4,0.7h0
			c5.1,2.5,10.1,5.2,15.4,7.4c1.4,0.6,3.1,0.7,4.7,1.1c4.9,1.2,8.8,4.3,13.5,6.1c12.7,4.9,25.6,6.4,38.9,6.2
			c16.8-0.3,33.9,2.4,50.2-4c2,0.3,4.3-0.8,6.1,1c1.4-0.7,2.8-1.3,4.2-2c1.6-1.7,3.3-1.5,5-0.1c3.8-1.4,7.7-2.7,11.5-4.1
			c1.7-1.6,3.4-1.6,5.1,0c2.5,0.1,5-0.8,7.2-1.4c3.8-1.1,8.2-0.7,11.4-3.7c-1.3,0-2.5,0.9-3.9-0.3c1.3-0.6,2.5-1.6,3.9,0.3
			c3.8-0.6,7.7-0.5,11.3-1.9c-0.9-0.1-1.8-0.3-2.8-0.4c1.9-0.7,3.9-1.6,5.6,0.1c0,0,0,0,0,0c1.7,0.4,2.2-1.2,3.2-2
			c8.4,0,16.9,0,25.3,0c1.6,0,3.4-0.6,4.7,1c0,0,0,0,0,0c1.6,1.7,3.7,0.1,5.7,0.9c6.3,2.3,11.8,7.1,19.1,6.4c2.2-0.2,3.9,0.3,3.9,3
			c12.8,5.7,25.7,10.7,39.7,12.3c4.6,0.5,8.4,3.8,13.1,4.1c1.6-1,3.3-1.7,4.8,0.1c0.6,1.2,1.7,1.1,2.7,1c3.2,0.1,6.5,0.1,9.7,0.2
			c0,0,0,0,0,0c1.4,0.1,3.1-1.1,4.1,0.9c1.3,1.9,3.2,2.1,5.3,2.1c11.2-0.1,22.4-0.1,33.6,0c2.6,0,5-0.5,7.2-1.9c0,0,0,0,0,0
			c2.6-2.3,5.4-1.4,8.1-0.2c1.6-1.1,3.8-0.4,5.3-1.9c1.3-1.9,2.7-1.5,4.1-0.1c3.9-1,7.7-2.6,11.6-2.8c3.1-0.2,5.6-2.8,7.9-2.5
			c5.2,0.6,9-2.4,13.4-3.7c-0.9-0.1-1.8-0.2-3.2-0.3c0.6-0.5,1.1-0.8,1.6-0.9c0,0,0-0.1,0-0.1c0,0,0,0.1,0.1,0.1
			c1.3-0.3,2.4,0.1,3.5,0c0.2-0.4,0.5-0.7,0.7-1.1c1.4-1.4,2.9-1.8,4.4-0.1c6-1.7,11.2-5.3,17.4-6.4c-0.7-0.2-2.1-0.2-1.7-1.1
			c0.3-0.5,1.6-2.8,3.1-0.7c3.8,0,7.5,0.1,10.1-3.4c0.1-3.3,2.3-1.2,3.7-1.2c-1,0.5-2,1-3,1.4c3.9,0.6,7-1.6,10.3-3.1c0,0,0,0,0,0
			l0,0c0,0,0,0,0,0c-1.2,0-2.5,0.8-4.4-0.7c2,0.3,3.3-1.9,4.4,0.7c0,0,0,0,0.1,0c0,0,0,0,0,0c4-1.6,8.7-0.7,12.5-3
			c2.8-1.3,5.5-1.6,8.2,0.1c0.6,1.2,1.7,1,2.7,1c3.2,0,6.5,0,9.7,0c0,0,0,0,0,0c0,0,0,0,0,0c1,0.8,1.5,2.4,3.3,1.9
			c1.6-1.7,3.6-0.8,5.7-0.7c-0.2,0.4-0.5,0.6-0.8,0.7c0.1,0,0.3,0.1,0.4,0.1c0,0-0.4,0-0.7,0c-0.7,0.2-1.4,0-1.9,0.2
			c2.9,1.5,6,1.9,9.2,2c0,0,0,0,0,0c1.3,1.2,2.7,1.9,4.4,1.8c0,0,0,0,0,0c-0.2-0.4-0.3-0.8-0.5-1.2c-1.2-0.3-2.4-0.6-3.7-0.9
			c1.5-0.9,3.2-2.3,3.7,0.9c2,1,4.5-0.8,6.4,1.2c0,0,0,0,0,0c1.7,2.2,4.4,2.6,6.8,3c2.1,0.4,5.1-1.1,6.3-0.1
			c4.2,3.3,9.5,1.9,13.8,4.3c1.7-1.4,3.4-1.7,5.1,0c3.7,3.2,8.6,1,12.5,3c0,0,0,0,0,0c0,0,0.1,0,0.1,0c1.1-1.2,1.3-1.2,7.4,0
			c-2.5,0-4.9,0-7.4,0c0,0,0,0,0,0c0,0,0,0,0,0c4.5,2.5,9.6,1.7,14.2,1.9c15.5,0.7,31,0.2,46.6,0.1c0.5-3.4,2.2-1.9,3.7-0.9
			c4.6,1.2,8.2-2.8,12.6-2.4c2.9,0.3,5.2-0.7,7.2-2.8c0.5-3.7,2.3-2,4-0.9c0.9,0,1.7,0,2.1-1c0,0,0,0,0,0c-0.5-2.2,1.4-2.3,2.6-2.7
			c0.6-0.2,0.5,1,0.4,1.6l0,0c0.6,0.2,1.7,0.6,1.9,0.4c3.7-4.1,8.6-5.8,13.7-7.4c-1.3-0.2-2.7,0.8-4.2-0.6c1.9-0.8,3.4-1.3,4.9,0.3
			c1-0.1,2.2,0.1,3-0.4c12.8-7.1,26.1-5.5,39.6-2.7c2.4-1.4,4.7-1.8,7.1,0.1c0.7,1.2,1.8,1,2.9,1c2.1,0.4,4.5-0.9,6.4,1
			c1.4-0.1,2.8-0.9,4.3,0c2.8,0,5.7,0.1,8.5,0.1c0.1,0,0.2,0.4,0.2,0.4c-0.2,0.2-0.4,0.4-0.6,0.6c0,0,0,0,0,0c0,0,0,0,0,0
			c0.8,0.3,1.5,0.6,2.3,0.9c7,2.5,14.8-0.9,21.6,3c6.1-1.5,12.2-1.6,18.3,0.1c0,0,0,0,0,0c4.4-1.9,8.9-2.8,13.7-2
			c2.4,0.4,4.2-0.8,6-2.1c2.4-2.2,5.2-0.6,7.9-0.9c5.3-0.7,10.2-1.6,15.3-4c6.2-3,12.8-4.7,16-11.6c1-1.5,1.7-3.4,4.1-3
			c4.6-5.7,10.3-10.3,15.4-15.4c-0.3-1-1.1-2.3-0.8-2.8c2.9-4.1,2.5-9.1,3.8-13.7c0,0,0,0,0,0c0,0,0,0,0,0c-1.6-6.9-1.6-13.7,0-20.5
			c-1.9-5.1-2.2-10.7-5.2-15.4c0.1,1.3,0.6,2.6-0.8,4.7c0.4-2.5-2.2-3.6-0.3-5.5c-7.4-12.5-16.7-23.8-22.6-37.2c0,0,0,0,0,0
			c0,0,0,0,0,0c0.2,1.2,0.6,2.3-0.1,3.4c-1.5-2.7-1.5-2.8,0.1-3.4c0,0,0,0,0,0l0,0c-2.3-4.9-4.6-9.8-6.9-14.6c0,0,0,0,0,0
			c-0.3-1.6-0.3-3.4-2.6-3.8c0.5,1.3,0.9,2.6,1.4,3.9c0.3,0,0.6,0.1,0.9,0.1c0.2,1.2,0.7,2.5-0.3,3.8c-0.6-1.3-1.2-2.6-1.8-3.9
			c-1.8-1-0.3-2.8-0.9-4.1l0,0l0,0c-0.8-3.2,0.4-7-3-9.3c-0.3,0.6,0.1,2.3-0.8,1.5c-1.5-1.2-2.7-3.2-1.3-5.4c0.4-1.1,1.1-2,0.5-3.3
			c-2.9-6.1-5.7-12.3-8.5-18.5c-0.2,1.3,0.7,2.6-0.4,4.2c-1.2-1.8-1-3.5-0.7-5.3c-1.4-4.7-0.4-10.1-4.3-14.1c0,0,0,0,0,0
			c0,0,0,0,0,0c0.3,1.4,0.6,2.8,1,4.8c-2.3-1.7-2.9-3.1-1-4.8c0,0,0,0,0-0.1l0,0c-1.6-6-3.2-11.7-6.7-17.2c-3.7-5.7-4.4-13.3-6.7-20
			c-2-6.1-3.6-12.4-5.6-18.5c-5.5-16.2-9.3-32.8-14.3-49.2c-5.1-16.7-8.8-33.8-13.5-50.6c-4.4-15.9-8.1-32-12-48
			c-1.3-5.5-1.9-11.1-3.6-16.4c-4.9-15.6-7.4-31.8-11.2-47.7c-3.8-15.6-7.6-31.3-10.4-47.2c-1.7-10.2-4.1-20.3-6.6-30.3
			c-1.9-7.5-1.8-15.2-4.6-22.6c-1.4-3.6-3.4-8-3.3-11c0.2-6.6-1.7-12.5-2.5-18.7c-1.2-9-3.8-17.7-5.3-26.7
			c-2.7-16-6.3-31.9-9.3-47.8c-2.7-14.3-5.5-28.6-8.1-42.9c-1.2-6.6-2.3-13.3-4.9-19.6c-1.6-1.6-1.5-3.3,0-4.9
			c-0.4-5.9-2.2-11.6-3.4-17.4c-2.5-12-4.5-24-6.6-36.1c-1.4-8.1-2.9-16.1-4.6-24.2c-1.2-5.7-2.4-11.6-2.7-17.4
			c-0.7-10.2-6.5-19.6-5-30.1c0.1-0.6,0.1-1.4-0.3-1.9c-3.8-5.4-0.1-13.1-5.3-18.1c2.6-8.1-1.9-15.4-2.7-23.1
			c-1.6-14.6-4.8-29-7.4-43.4c-1.4-7.8-2.3-15.7-4.2-23.4c-2.8-11.3-3.5-22.9-6.2-34.2c-2.2-9.1-2.8-18.9-4.7-28.2
			c-3.4-16.8-5.4-33.9-8.9-50.8c-3.5-16.9-5.4-34.2-8.6-51.1c-1.1-5.5-0.5-11.5-3.5-16.6c-1.3-1.7-1.6-3.4,0.1-5
			c0.1-1.9-0.2-3.7-0.5-5.6c-2.4-11.9-5.4-23.7-6.8-35.7c-1.5-12.5-4.1-24.8-7-37c-2-1.9-1.5-3.9-0.2-5.9c1.3-3.4-1.5-6-2.1-9
			c-1.4-8.1-3.3-16.2-5.1-24.3c-1.7-1.5-1.3-3.1-0.1-4.7c-1.8-11.7-4.9-23.1-7.5-34.7c-4.4-19.3-9.6-38.5-15.3-57.5
			c-2.5-8.2-4.7-16.6-8.9-24.2c-1.8-3.3-3.2-7.4-3.6-10.8c-0.8-5.7-4-10.2-5.8-15.3c-2.5-7.3-7-13.8-9.6-21
			c-2.6-7.1-5.9-13.8-9.6-20.1c-3.9-6.6-7.7-13.3-11.4-20c-5.9-10.7-13.2-20.5-21-29.4c-6.4-7.4-13-15.7-22.7-20
			c-2.9-1.3-5.1-3.8-7.7-5.7c-2.7-1.9-3.3-4.2-2.1-7.4c2.9-7.7,5.5-15.6,8.2-23.4c4.6-13.1,8.1-26.5,12.3-39.7
			c3.3-10.4,7.1-20.6,9.7-31.2c1.6-6.5,4.7-12.9,6.9-19.5c3.6-11,7-22,10.5-33c3.1-9.7,5.8-19.5,9.2-29.1c2.1-5.8,2.1-12.3,5.9-17.6
			c0.1-0.1,0.2-0.2,0.3-0.2c0.6-0.5,0.7-1.3,0.8-2.1C2153.6,354.2,2152.5,353.8,2153.1,353.2z"/>
	</g>
</g>
</svg>
