<?xml version="1.0" encoding="utf-8"?>
<!-- Generator: Adobe Illustrator 27.8.1, SVG Export Plug-In . SVG Version: 6.00 Build 0)  -->
<svg version="1.1" id="Capa_1" xmlns="http://www.w3.org/2000/svg" xmlns:xlink="http://www.w3.org/1999/xlink" x="0px" y="0px"
	 viewBox="0 0 2834.6 2267.7" style="enable-background:new 0 0 2834.6 2267.7;" xml:space="preserve">
<style type="text/css">
	.st0{fill:#F3F3F3;}
	.st1{fill:#E2E2E0;}
	.st2{fill:#040405;}
	.st3{fill:#BBBDBB;}
	.st4{fill:#1E1E1E;}
	.st5{fill:none;}
	.st6{fill:#393E43;}
	.st7{fill:#2B2D31;}
	.st8{fill:#373E44;}
	.st9{fill:#1C2630;}
	.st10{fill:#373E43;}
	.st11{fill:#485051;}
	.st12{fill:#1C2530;}
	.st13{fill:#1D272F;}
	.st14{fill:#373D43;}
	.st15{fill:#1E2631;}
	.st16{fill:#1D262F;}
	.st17{fill:#383D44;}
	.st18{fill:#1E2730;}
	.st19{fill:#1D1D1D;}
</style>
<g>
	<g>
		<path class="st0" d="M1022.7,304.8c-4.4-5.4-7.3-11.6-10.9-17.5c-1.4-2.2-2.9-2.7-5.3-3c-4.8-0.6-8.5,1.9-12.5,3.6
			c-13.3,5.8-26.7,11.2-39.6,17.8c-0.7,2,0.8,3.3,1.7,4.7c3.8,5.9,7.8,11.7,11.7,17.5c1.8,4.3,5.4,7.3,7.7,11.3
			c3.6,6.2,8.2,11.9,11.7,18.2c-8.5-4.3-16.8-8.6-25-13.2c-1,0-1.7,0.6-2.2,1.3c-1.7,5.2-4.1,10.1-5.1,15.5c2.3,5,2.6,10.5,3.7,15.8
			c1,4.5,0.8,9.4,3.3,13.6c0.2,0.1,0.4,0.2,0.7,0.2c0.6,4,0.9,8.1,2.1,12c-0.1,0.3-0.3,0.5-0.4,0.8c-0.4,0.9-0.7,1.8-0.7,2.8
			c0,2.8,0.7,5.5,1.2,8.3c0.9,5.7,2.7,11.2,2.5,17c1.5,2.8,2.1,5.7,2.7,8.8c2.2,11.2,3.6,22.6,6.5,33.7c0.1,0.3,0.2,0.6,0.3,0.9
			c-0.3,0.2-0.5,0.6-0.6,1.1c0.9,7.4,2.4,14.7,3.8,22.1c0.2,1,0.5,2,1.5,2.5c0.5,0.1,1,0,1.4-0.4c2-7,3.4-14.1,4.4-21.3
			c1.5-4.2,2.1-8.7,2.7-13.1c1.5-5.6,2.8-11.2,3.5-17c3-13.9,6-27.9,8.9-41.8c6.4-30.5,12.8-61.1,19.1-91.6
			C1022.2,312.2,1023.9,308.6,1022.7,304.8z M984.5,447.3c0-0.1,0-0.2,0-0.3c0.1,0,0.2,0.1,0.3,0.2
			C984.7,447.2,984.6,447.3,984.5,447.3z"/>
		<path class="st0" d="M923,327.7c2.6-4.7,5.9-8.8,9-13.1c0.8-3.2,4.2-5.2,4-8.9c-0.6-0.1-1.2-0.2-1.7-0.4
			c-14.3-6.5-28.5-13-42.8-19.6c-5.1-2.4-6.7-2-9.8,2.6c-3.4,5.1-6.7,10.4-10.4,15.2c-1.5,1.9-1.9,4.6-4.5,5.6
			c-1.1,0.8-0.6,1.8-0.3,2.8c0.9,3.9,1.7,7.8,2.5,11.6c8.3,40.1,16.7,80.3,25,120.4c4,19.4,7.9,38.9,11.9,58.3
			c0.5,0.5,0.4,1.7,1.1,1.8c1,0.1,1.4-0.9,1.7-1.7c1.3-4.5,1.6-9.2,2.3-13.9c1.8-5.6,2.5-11.5,3.2-17.4c1.9-10.5,3-21.2,5.7-31.6
			c0.8-5.9,1.8-11.8,3.1-17.7c0-0.9-0.6-1.6-0.4-2.6c2.2-8.4,2.8-17.1,4.5-25.5c0.2-1.4,0.3-2.8,0.8-4.1c1.5-5.7,2-11.6,3.3-17.4
			c0.1-2.8,0.3-5.5,0.8-8.2c1.2-6.6-1.6-11.8-5.1-16.9c-2.3-0.6-3.9,0.8-5.7,1.8c-7.5,4.3-15,8.5-23.2,13.6
			c7.8-11,14.9-21,21.7-31.3C921,330.3,920.6,327.5,923,327.7z"/>
	</g>
	<g>
		<g>
			<path class="st1" d="M621.8,1061.7c0.9-1.1,2.2-0.7,3.3-0.7c24.2,0,48.5,0,72.7,0c1.2,0,2.6-0.4,3.7,0.7
				c-1.9,4.1-0.7,8.4-0.8,12.5c0,3.1-0.7,4.4-4.1,4.4c-23.2-0.1-46.5-0.1-69.7,0c-3.4,0-4.3-1.1-4.2-4.3
				C622.6,1070.1,623.4,1065.8,621.8,1061.7z"/>
		</g>
		<g>
			<path class="st1" d="M1190.7,1061.7c0.6-1,1.5-0.6,2.4-0.6c24.6,0,49.3,0,73.9,0c1.1,0,2.4-0.3,3.3,0.7c-2.6,2.2-0.7,4.9-0.8,7.3
				c-0.3,9.5-0.1,9.5-9.6,9.5c-21.3,0-42.6-0.1-64,0.1c-3.4,0-4.6-0.8-4.6-4.4C1191.5,1070,1192.6,1065.7,1190.7,1061.7z"/>
		</g>
	</g>
	<g>
		<path class="st2" d="M1094.7,437.3c3.8-5.8,7.6-11.7,10.7-17.8c4.7-9,10.5-17.3,14.9-26.5c2.5-5.2,3.2-5.8-1.8-8.5
			c-7.5-4.1-13.6-10.1-21-14.2c-2.8-1.6-5.2-3.8-7.8-5.7c-1.3-0.9-2.4-2.3-1.5-3.8c2.6-4.5,2.8-9.8,5.5-14.3
			c1.5-2.4,1.4-4.6-1.2-6.3c-1-0.9-2.2-0.7-3.3-0.9c-2.2,0.1-4.4,0-5.9,2.2c-4.4,6.4-9.2,12.5-14.5,18.2c-2.2,2.3-0.8,5,0.9,5.6
			c3,1,4.7,3.4,7.2,4.7c9.9,5.2,18.1,12.8,27.6,18.5c1.9,1.1,2.7,2.9,2,4.9c-2.6,6.9-7.3,12.8-10.2,19.7c-1.7,4-4.7,7.5-6.5,11.5
			c-2.4,5.4-4.9,10.8-7.9,15.6c-4.4,7.1-8.1,14.6-12.6,21.7c-5.7,9-9.2,19.1-15.3,28.1c-4.5,6.7-7.3,14.7-11.3,21.8
			c-4.2,7.5-7.8,15.3-12.4,22.6c-2.5,4-5,8.3-6.8,12.4c-4.3,10.1-11.6,18.5-14.7,29.1c-0.2,0.6-0.4,1.1-0.8,1.5
			c-4.3,4.3-5.6,10.3-8.9,15.2c-4.6,6.9-7.9,14.7-11.8,22c-0.6-0.2-1.2,0-1.5,0.6c-1.5,3.5-3.9,6.5-5.5,10
			c-3.1,6.3-6.5,12.4-10.5,18.3c-2.3,3.4-4.9,7.2-3.8,11.9c-2.4,1.4-3.5,3.5-3.5,6.2c2.1-1.5,2.6-4,3.5-6.2c3.9-3.2,6.3-7.8,8.3-12
			c6.5-13.7,15.3-26,22.5-39.2c6.2-11.3,13.5-22.1,19.9-33.4c7.7-13.6,15.5-27.1,23.3-40.6c4.9-8.4,10.3-16.5,15-25
			c3.9-7.1,7.9-14.3,12.2-21.2c6.3-10.3,11.8-21.2,18.6-31.2C1089.2,447.8,1091.4,442.3,1094.7,437.3z"/>
		<path class="st2" d="M746.6,647.6c-0.6-3.3,1-6.3,0.8-9.6c-0.5-7.7-0.9-15.4-0.9-23.1c-0.1-18.1-1.4-36.1-2.5-54.1
			c-1.1-18.5-4.9-36.7-6.8-55c-0.9-8.7-3.2-17.1-4.2-25.8c-0.9-7.9-3.5-15.7-5.8-23.3c-3.2-10.7-5-22.1-11.5-31.7
			c-0.5-0.7,0.1-2.4-1.5-2c-1.1,0.3-1.5,1.6-1.2,2.6c1.3,4.4,0,9.5,3.3,13.5c1,1.1,1,2.7,1.1,4.2c0.4,7.4,3.2,14.4,4.1,21.8
			c0.7,5.3,2.6,10.4,2.9,15.8c0.5,9,3.4,17.7,4,26.8c0.5,8,3,16,3,24.2c0,8.1,1.6,16,2.2,24.1c0.9,12.5,2.1,25.1,3.3,37.6
			c0.5,6,0.2,12.1,1.1,18c1.2,7.5,1.1,15.1,1.8,22.6c0.9,9,1.1,18.4,0.5,27.6c-0.2,3,0.4,5.8,1.4,8.6c1.3-4.8,0.8-9.7,3.2-14.1
			C747.3,653.8,745.8,650.5,746.6,647.6z"/>
		<path class="st2" d="M899.7,611.7c-2.4-2.1-3.4-5-4.8-7.8c-3.7-7.9-7.7-15.6-11.8-23.2c-3-5.4-6.7-10.3-9.6-15.7
			c-5.2-9.5-8.5-19.9-14.5-28.9c-2-3-4.2-5.9-5.4-9.2c-1.4-4.2-5.2-7.1-5.6-12c-0.2-2.3-1.9-5-4.1-6.6c-1.5-1.1-2.2-2.4-3-4
			c-1.9-4.1-3.8-8.5-6.3-12.2c-3.3-4.8-4.6-10.5-7.6-15.3c-1.9-2.9-2.4-6.9-4.3-9.3c-4-5.2-7.5-10.4-9.9-16.4
			c-1.6-4-5.6-6.9-6.6-10.8c-1.6-6.3-5.1-11.6-8.4-16.7c-4.3-6.9-7.1-14.7-12.2-21.2c-1.7-2.2-1.1-5.6-4.3-7.6
			c-1.9-1.2,1.5-8.6,4.9-9.2c8.4-1.7,12.6-9.5,20-12.8c4-1.8,7.1-5.2,10.8-7.8c3.5-2.5,3.9-4.1,0.8-6.9c-4.6-4.2-7.5-9.7-11.2-14.5
			c-2.1-2.8-3.7-4.6-7.2-4.3c-1.1,0.2-2.5-0.5-3.4,0.8c-0.9,1-1.4,2.1-0.9,3.6c1.8,5,3.2,10.2,5.3,15.1c1.5,3.4,1.1,5.5-1.9,7.5
			c-6.2,4-11.9,8.6-18.3,12.3c-3.3,1.9-5.2,5.4-8.7,6.7c-5.8,2.1-6.2,3.6-2.1,7.9c0.5,0.5,0.6,1.3,0.9,1.9c1.7,3.9,3.4,7.8,6.1,11.1
			c5,6.3,7.2,14.1,12.3,20.5c4.1,5.1,5.5,12.3,9.5,17.5c4.9,6.3,7.8,13.6,11.9,20.3c3.9,6.3,7.9,12.6,11,19.4
			c1.2,2.7,4.1,4.5,5.6,7.1c4.5,7.8,8.7,15.7,13,23.6c0.8,1.5,2.9,2.3,3,4.2c0.3,3.5,2.6,6,4.2,8.8c3.8,6.6,7.9,13,11.8,19.5
			c4.5,7.7,8.3,15.8,13.4,23.1c4,5.6,7.9,10.9,9.7,17.7c0.4,1.5,0.3,5.3,4.2,3.8c0.1,0,0.8,0.9,0.8,1.5c0.3,4.7,4,7.7,5.8,11.6
			c1.5,3.5,5.1,6.1,5.9,9.4c0.7,2.9,1.7,4.2,4.9,5.6C901.4,616.8,902,613.6,899.7,611.7z"/>
		<path class="st2" d="M1169.7,429.9c-3.8,10.9-7.3,21.8-10,33.1c-1.3,5.5-2.2,11.3-4.1,16.5c-2.9,7.8-2.4,16.1-4.8,23.9
			c-1.9,6.2-1.2,12.8-2.5,19.1c-3,15.1-3.2,30.4-4.5,45.7c-0.9,10.7-2.1,21.4-1.9,32.2c0.1,5.8-1.5,11.8-1.3,17.4
			c0.3,9.9-0.6,19.9,1.2,29.8c1.5,7.3,2.9,14.7,4.4,22c1.3,0.3,0.4,2.2,1.8,2.5c0.3-22.8,2.7-45.5,3.5-68.2
			c0.8-22.8,3.7-45.4,5.5-68.2c1.8-22.6,5.9-44.9,9.9-67.2c3.9-22.1,9.4-43.9,15.1-65.7C1178.2,412,1173,420.5,1169.7,429.9z"/>
		<path class="st2" d="M1145.1,928.9c-9.2-0.8-18.3-1.8-27.5-2.6c-10.9-1-21.9-1.8-32.8-2.7c-1.5-0.1-2.4-0.7-2.9-2.2
			c-1.3-4.3-3.4-8.4-5-12.7c-2-5.4-3.9-10.8-6.1-16.8c-1.3,5.8,0.4,10.7,0.6,15.7c0.3,8.1,1.2,16.2,1.9,24.3
			c0.1,1.2-0.2,3.2,1.7,3.1c6.4-0.5,12.5,2,18.7,1.7c5.2-0.2,10.5-0.2,15.6-0.1c9.1,0.3,18.2,0,27.3,0.3c3.8-1.6,7.4-3.6,10.8-5.9
			C1147.3,929.6,1146.5,929,1145.1,928.9z"/>
		<path class="st2" d="M816.5,903.6c-1.1-0.6-1.9,0.2-2.7,0.9c-0.9,0.9-1,2.1-1,3.3c0.1,5.4-3.8,9.4-4.8,14.5
			c-0.3,1.3-1.8,1.2-3,1.3c-13.9,1.5-27.9,1.7-41.7,4.5c-6,1.2-12,0.7-18,0.8c-2.2,0-3.5,0.4-2.4,3c2.4,1.8,5,3.3,7.9,4.2
			c3.8,0.1,7.5,1,11.4,0.9c7.2-0.2,14.3-1.2,21.6-1.1c8.2,0.1,16.4,0.7,24.7-0.7c5.3-0.9,6.2-1.7,7.3-6.9c1.5-7.4-0.2-15,1.6-22.4
			C817.4,905.1,817.5,904.1,816.5,903.6z"/>
		<path class="st2" d="M675.9,1055c-7,0.5-13.8-1.1-20.9,0.1c-3.9,0.7-8.4,1.1-12.5,0.8c-5.2-0.3-10.3-1.5-15.6-0.4
			c-1.2,0.3-3.2-0.6-3.1,1.4c0.1,1.8,2.1,1.1,3.3,1.2c6,0.7,12-1.8,18-0.7c6,1.1,12,0.9,18,0.5c4.5-0.3,8.9-0.3,13.5-0.1
			c6.3,0.4,12.8,1.4,19-1.5C689.2,1053.4,682.3,1054.5,675.9,1055z"/>
		<path class="st2" d="M714,419.3c-0.4-1.9-0.2-4.1-2.4-4.4c-1.4-0.2-1.4,1.3-1.3,2.3c0.2,1.6,0.4,3.3,2.5,3.6
			C714.1,420.8,714.2,420,714,419.3z"/>
	</g>
	<g>
		<path class="st3" d="M896.1,363.3c0.3,0.2,0.5,0.5,0.8,0.7c9.7-5.6,19.5-11.2,29.2-16.7c-1.6-5.9-3.9-11.6-7.1-16.8
			C911.5,341.4,903.8,352.3,896.1,363.3z"/>
		<path class="st3" d="M968.4,327.8c-2.9,5-4,10.6-6.2,15.9c-0.1,0-0.2,0.1-0.2,0.3c-0.1,0.2,0.1,0.3,0.4,0.5c0.4,1.2,1.2,2,2.3,2.6
			c5.9,3.2,11.9,6.3,17.8,9.5c2.1,1.1,4.3,2.2,6.4,3.2c0.3-0.3,0.5-0.5,0.8-0.8C982.8,348.4,976.1,337.8,968.4,327.8z"/>
	</g>
	<path class="st4" d="M1280.1,1058.2c-0.5-5.3-1.1-10.6-1.7-15.9c-1.5-13.1-2.5-26.3-3.3-39.4c-0.9-14.2-2.3-28.5-2.9-42.7
		c-0.4-11.5-1.6-23-1.7-34.5c-0.1-18.2-1.9-36.3-2-54.5c0-4.9-0.6-10-0.6-14.8c0-13.9-1.9-27.7-2-41.6c-0.1-11-1-21.9-1.5-32.8
		c-0.6-13.7-1.6-27.4-2.1-41.2c-0.1-3.2,0.5-6.6-0.1-9.7c-2.5-12.7-1.5-25.8-3.5-38.5c-0.9-5.7-0.2-11.4-1-17
		c-1.7-11.8-3-23.7-4.3-35.6c-0.7-6.6-1.7-13.1-2.6-19.7c-1.2-8.7-2.2-17.4-3.4-26.1c-1.4-9.5-2.8-19-4.4-28.5
		c-1.2-7.2-2.5-14.4-3.7-21.6c-1.6-9.5-3.1-19-4.8-28.4c-1.4-7.6-3.6-15-4.8-22.6c-1.5-9.2-3.8-18.2-5.7-27.3
		c-1.5-7-3.1-14.1-4.9-21.1c-2.7-10.2-4.7-20.5-7.5-30.7c-2-7.5-4-15.1-5.9-22.6c-1.4-5.6-1.7-12.2-8.8-14.4c-1.4-0.4-2.8-0.8-4-1.5
		c-12.6-7.1-26.2-12.1-39.6-17.4c-11.9-4.6-24.1-8.5-36.3-12.1c-8-2.4-15.9-5.8-24.5-5.9c-0.4,1.8,1.4,3.5,0.3,5.5
		c-2.1,3.7-2.8,8-4.4,12c-2,5-1.7,6,2.9,9.1c8.8,6.1,17.2,12.9,26.4,18.3c3.9,2.3,3.5,3.2,1.7,7.2c-2.4,5.6-6.2,10.3-9,15.6
		c-2.2,4.2-4,8.6-6.7,12.4c-9,12.6-15.7,26.5-23.8,39.7c-6,9.8-11.7,19.7-17.3,29.7c-7.7,13.7-16.3,26.9-24,40.6
		c-8.9,16.1-18.8,31.6-27.6,47.8c-6.3,11.7-13.8,22.6-20.4,34.1c-8,13.8-15.8,27.7-24.1,41.3c1.4-4,3.2-7.8,5.5-11.6
		c5.3-8.7,10-17.9,14.9-26.9c0,0,0.1,0,0.1,0c1-0.1,1.5-0.8,2-1.6c4.9-8.7,9.3-17.7,14.4-26.4c3.3-5.5,5.4-11.8,8.8-17.1
		c5.8-8.9,9.6-18.8,15.2-27.8c3.3-5.3,6-11.1,8.9-16.7c4.6-9,10.3-17.5,14.4-26.8c3.2-7.2,8.4-13.1,11.6-20.3
		c4.7-10.8,11-20.8,16.6-31c1.5-2.7,3.5-5.2,4.6-8c3.7-9,9.4-16.9,13.5-25.7c2.9-6.1,6.8-11.7,9.4-17.9c1.8-4.3,1.4-5.9-2.2-8.8
		c-3.7-3-8.1-4.8-11.7-7.9c-6.2-5.4-13.7-9-20.4-13.9c-3.3-2.4-3.9-3.4-1.1-6.5c3-3.4,6.3-6.6,8.8-10.5c2.4-3.8,5-7.3,9.3-8.9
		c-1.4-0.8-2.7-2.2-4.2-2.4c-6.5-1.1-12.4-2.4-17.6-7.6c-8.7-8.6-18.6-16-28-24c-4.1-3.5-8.6-6.5-12.3-10.4
		c-0.9-0.9-2.3-1.7-2.7,0.7c-0.5,3.1-1.1,6.2-1.7,9.2c-0.5,1.2-0.9,2.5-1.1,3.8c-2.1,11.8-4.8,23.4-7.2,35.1
		c-7.3,35.1-14.5,70.2-21.8,105.3c-1.4,5.6-2.1,11.3-3.5,16.9c-1.2,4.4-1.7,8.9-2.7,13.3c-1.6,6.9-2.7,14-4.5,20.9
		c-0.3,1.6-0.2,3.2-0.7,4.7c-0.7,9.2-4.1,17.8-5.3,26.9c-1.2,5.2,0,10.7-2.4,15.8c-0.1,0.4-0.3,0.8-0.4,1.1c-1,2.6-0.3,5.7-2.2,8
		c-2.6,7.3-3.1,15.1-4.9,22.6c0.2,2.3-0.1,4.7-1.3,6.4c-2.4,3.4-2.6,7-2.3,10.8c-0.1,0.2-0.1,0.5-0.2,0.7c0-0.3,0-0.7-0.1-1
		c-1.1,1-2.2-3-3.4-0.1c0.7,1.3,1.7,2.4,2.9,3.2c-0.1,0.3-0.2,0.6-0.3,1c-0.2,2.7-1.6,5.3-0.4,8.1c0.1,0.1,0.2,0.1,0.3,0.2
		c-1.4-0.1-1.7,1-1.8,2c-0.5,5.7-3.1,10.9-3.6,16.6c-0.4,2-0.6,4.1,0.1,6.1c0.6,1.9,0.2,3.2-1.4,4c-3.3,1.5-3.3,4-2.5,7
		c0.5,1.7,1,3.4,1.6,5c0.6,1.5-0.7,1.2-1.5,1.3c-2.3,0.1-2.6,2.1-3.2,3.7c-1.2,3.3-2.2,6.7-3.3,10.1c-0.4,1.3-0.7,3.6-3.2,2.3
		c-0.2-0.2-0.5-0.4-0.9-0.5c-0.2-0.9-0.4-1.7-0.6-2.6c0.1-0.1,0.2-0.2,0.4-0.3c1-0.9,0.5-1.9,0.2-2.8c-2.4-7-5.1-13.9-6.3-21.2
		c-0.2-1.3-0.9-2.1-2-2.2c1.2-1.5,1.6-3.1,0.4-5.1c-1.2-1.3-1.3-2.8-1.4-4.5c0-4.1-0.7-7.9-2.4-11.8c-1.6-3.8-1.9-8.2,0-12.3
		c-1.7-3.5-3.7-6.7-4.3-10.7c-1.8-10.8-4.4-21.5-6.6-32.2c-1-2.2-1.1-4.6-1.5-7c0.1-1,0.1-2.1-0.3-3.1c-2.4-6.1-3.8-12.3-1.3-18.8
		c-4.1-5.7-6.5-12-6.6-19c-0.1-3.9-2.8-7.1-2.6-11c0-1.2-0.3-2.3-0.5-3.5c-7.2-34.8-14.4-69.6-21.7-104.4
		c-5.9-28.1-11.1-56.3-17.9-84.2c0.3-2.5-0.9-4.7-1.4-7.1c-0.6-2.6,0.3-6.6-2-7.4c-2.5-0.9-4.3,2.8-6.4,4.5
		c-11.5,9.8-22.9,19.6-34.6,29.2c-2.7,2.3-4.9,5.6-8.5,6.5c-4.9,1.3-10.1,1.8-14.6,4.4c1.3,1.6,3.7,1.3,5.1,3.2
		c4.1,5.5,7.5,11.5,12.5,16.4c1.5,1.5,1.7,3.2-0.1,4.6c-4.3,3.1-8.2,6.8-12.7,9.5c-1.6,1-3.8,0.9-5,2.6c-3.2,4.6-8,6.7-12.9,8.8
		c-6.6,2.9-7.9,7.7-3.8,13.2c0.4,0.5,0.6,1,0.9,1.5c3.8,8.3,8.6,16,12.9,24c3.1,5.6,6.4,11.1,8.9,17.1c2.4,5.7,7.2,10.4,8.3,16.8
		c0.1,0.4,0.6,0.6,0.9,0.9c3.3,3.2,5.6,7.3,7.5,11.2c4.7,10.2,10.2,20.1,15,30.2c2.4,5.1,6.9,9,8.9,14.1c2.3,6.1,6,11.3,8.4,17.2
		c0.4,1.1,0.9,2.2,1.7,3.1c4.3,4.8,6.9,10.7,9.3,16.4c4.6,11.1,11.2,21,16.7,31.4c2.3,4.4,5.6,8.2,7.3,13c1.4,3.9,3.5,7.7,5.4,11.5
		c-2.4-4.5-5.6-8.6-7-13.6c-0.2-0.9-0.8-1.7-1.7-1.9c-2.6-0.7-3.1-2.9-3.7-5.1c-0.4-1.7-1.1-3.3-1.8-4.9c-3.3-7.3-9.1-12.9-12.8-20
		c-6.8-13.1-15.1-25.3-22.1-38.2c-4-7.3-8-14.7-12.2-21.9c-6.2-11-13.6-21.2-19.7-32.3c-6.4-11.7-13.8-22.9-20-34.7
		c-2.3-4.4-4.8-8.5-7.7-12.6c-2.7-3.7-4.2-8.7-7-12.6c-3.9-5.4-6-11.8-10-17.1c-1.5-2-1-3.6,1.2-4.6c1.6-0.7,3.3-1.2,4.6-2.5
		c6.9-6.6,15.5-10.9,23.3-16.4c4.3-3,4.9-4.9,3.2-9.8c-2-5.9-5.5-11.4-5.4-17.9c-4.2,0.3-8.2,1-12.2,2.3c-9.1,2.8-18.1,5.6-27.1,8.4
		c-9.6,3-19,6.6-28.3,10.1c-11.5,4.3-22.7,9.6-33.8,15.1c-4.3,2.1-8.7,3.6-10,9.7c-2.6,12.3-6.6,24.4-9.7,36.6
		c-2.5,9.8-4.5,19.7-6.7,29.6c-2.4,10.5-5.2,21-7.4,31.6c-2.5,11.6-4.6,23.3-6.8,34.9c-1.9,10.4-3.9,20.8-5.6,31.2
		c-1.7,10.2-3.1,20.5-4.8,30.6c-1.8,11-3.5,22.1-5,33.2c-0.8,5.9-1,11.8-2,17.6c-1.5,8.8-2.5,17.7-3.2,26.6
		c-0.6,8.3-1.2,16.6-2.3,24.7c-1.8,13.6-2.3,27.4-3.8,41c-1,9.5-1.3,19.2-1.9,28.8c-0.8,15-1.6,30-2.6,44.9
		c-0.9,14.1-0.8,28.3-1.7,42.5c-1.1,16-0.2,32.2-1.9,48.2c-1.1,10.8,0.5,21.7-0.9,32.5c-1.3,9.4-1.1,18.9-1.7,28.3
		c-0.7,10.9-1.3,21.8-1.8,32.8c-0.5,11.1-1.7,22.1-2.1,33.2c-0.2,4.2,0.2,8.6-0.9,12.6c-2.4,9.5-1.3,19.3-3.2,28.8
		c-1.1,5.6-0.3,5.7,5.6,5.7c2.5,0,5,0,7.5,0c3.2,0.5,6.4,0.5,9.6,0.5c20,0,40,0,60,0c3.4,0,6.7,0,10.1-0.5c6.2,0,6.1,0,6.2-6.2
		c0-3.5,0.4-6.9,0.7-10.4c1.4-16,1.2-32,2.6-48c0.9-10.6,1.5-21.3,1.6-31.9c0.3-18.7,3.1-37.3,3-56c0-1.6-0.3-3.3,0-4.9
		c2.6-12.9,2-26,3.2-39c0.7-7.6,1.7-15.3,2.2-23c0.7-12.4,2.2-24.8,3.4-37.2c0.7-7,1.5-14.1,2.5-21c1.1-7.4,1.8-14.9,2.5-22.3
		c0.6-6,1.8-12,2.3-18.1c0.7-9.3,3.2-18.4,4.1-27.7c1-10.6,3.6-20.9,4.8-31.5c1.1-9.4,3.5-18.7,4.4-28.2c-2-0.3-2,1.4-2.3,2.5
		c-0.5,1.5-0.7,3.1-0.9,4.7c-3.5-79.5-7.5-158.9-27-236.7c2.1,1.8,3.5,4,3.9,6.4c1.2,6.6,4.3,12.5,6,18.9c2.4,8.9,4.4,18,6.7,27
		c0.6,2.3,0.2,4.7,1.2,6.9c1.7,3.9,2.4,8.2,2.9,12.4c1.1,9.6,2.1,19.2,3.8,28.8c3.3,18.2,4,36.6,5.2,55c0.8,11.9,1.4,23.8,1.1,35.8
		c-0.2,8.7,1.8,17.3,0.2,26c-0.2,1.3-0.1,2.7,1.1,3.6c0.8-0.2,0.2-1.9,1.7-1.5c-0.4,4.5,1.9,8.7,1.8,13.2
		c-0.1,6.7,1.2,13.3,2.1,19.9c2,15.7,3.6,31.5,3.8,47.2c0.4,38.3,1.3,76.6-0.5,114.9c-0.3,7.3-1.1,14.6-1.2,21.9
		c0,3.1,0.1,6.5-0.9,9.5c-2.2,6.1-3.9,12.5-5.5,18.7c-2.8,10.9-6,21.7-8.9,32.5c-1.4,5.3-0.4,6.8,3.9,8c1.3-0.7,2.5-1.6,4.1-1.6
		c8,0.3,15.8-1.7,23.6-2.3c11-0.9,21.9-2.5,33-3c3.6-0.2,5.7-1.7,6.9-5.1c1.5-4.5,4-8.6,4.7-13.4c-0.3,7.3,0.6,14.5-0.9,21.7
		c-0.8,3.6-2.2,5.7-6.3,5.9c-17.6,1-35.3,0.9-52.9,1.2c-1.5,0-3-0.4-4.1,0.9c0.4,1,2.2,1,1.9,2.2c-1.6,5,0.1,10.3-0.9,15.2
		c-2.4,11.9-2.5,24.1-4.1,36.1c-1.7,13.6-2.5,27.4-3.7,41.2c-1.4,15.1-3,30.2-4.3,45.4c-1.4,16.2-2.6,32.4-4.6,48.6
		c-1,8.6-0.8,8.8,7.9,10.4c4.1,0.8,7.2,1.9,7.2,7c-0.2,11.2,0.5,22.4,1.5,33.7c1,11.4,1.2,23,1.7,34.5c0.8,17.4,1.7,34.7,2.8,52
		c0.7,12.2,0.8,24.5,1.7,36.8c1,12.8,0.3,25.7,1.8,38.5c1.1,9,0,18.1,0.9,27.2c1.1,12,1.4,24.2,1.7,36.3c0.6,17.7,0.9,35.4,1.9,53.1
		c0.8,15.2-0.1,30.5,0.8,45.8c1.2,20.5-0.1,41.1,0.9,61.7c1.3,25.9-1,51.8-0.8,77.7c0,7.9-0.3,15.8-0.6,23.7
		c-0.6,19.6-0.8,39.3-1.8,58.9c-0.5,10.4-1.1,20.8-1.3,31.2c-0.1,4.2-0.4,8.4-0.7,12.6c-0.8,11.3-1.8,22.6-2.6,33.9
		c-0.2,3.2,0.3,6.5-0.1,9.7c-2.2,16-2.9,32-4.4,48c-0.7,7.2-1.5,14.4-2.1,21.6c-0.8,10.9-2.6,21.7-4.1,32.5
		c-0.8,5.7-1.7,11.4-2.1,17.2c-0.4,6.2-1.5,12.3-2.3,18.4c-0.3,2.5,0.6,4.3,2.5,6.1c10.8,10.2,21.4,20.4,32,30.7c0.6,0,1.2,0,1.8,0
		c3.6-1.1,7.3-0.3,10.9-0.6c10-1,19.9-2.1,29.9-3.2c11.6-1.2,23.1-2.8,34.6-4.2c5-0.6,6.2-2.1,7.2-7c2.7-13.3,5.3-26.6,7.7-40
		c2.9-16.4,5.4-32.9,7.7-49.4c1.5-10.8,2.5-21.6,4.1-32.4c2.6-17.4,3.9-34.9,5.4-52.3c1.1-13.5,2.3-27,3.3-40.5
		c1.1-15,2.2-30,2.7-45c0.5-14.4,1.8-28.8,2.3-43.3c0.6-18.1,1.4-36.2,2.2-54.3c0.5-11.5,1.1-23,1.3-34.5c0.1-7,0.5-14.1,0.8-21.2
		c0.6-17.5,2.3-35,2.5-52.5c0.2-14.3,1.2-28.6,2.2-42.8c1.9-26.7,3.3-53.5,5.6-80.3c2.1-23.8,4.1-47.6,6.7-71.3
		c2.9-26.5,6.4-53,10.7-79.3c3.1-19.3,6-38.7,10.5-57.8c1.2-4.9,2.3-9.8,5.5-13.9c2.7-3.3,5.7-3.5,8.6-0.4c2.8,3.1,4.6,6.8,5.7,10.9
		c1.9,6.7,3.7,13.4,5.2,20.1c7.6,33.7,14.8,67.4,21.1,101.3c5.1,27.8,9.7,55.8,13.9,83.8c2.7,17.9,5,35.9,7.3,53.9
		c1.8,13.7,3.2,27.5,4.9,41.2c2,17,3.3,34,5.2,51c1.5,13.8,2.8,27.6,3.6,41.4c0.6,10.7,2.1,21.4,2.3,32.2c0.2,12.2,2,24.4,2.4,36.6
		c0.3,13,1.3,25.9,2.1,38.8c0.9,14.7,1.6,29.4,2.1,44.1c0.3,8.8,1,17.7,1.2,26.5c0.6,21.5,1.8,43,2.4,64.5c0.1,2.9,0.2,5.9,0.4,8.8
		c0.5,11.6,2,23.2,2.3,34.8c0.4,13.8,1.8,27.6,2.9,41.4c0.7,7.9,1.4,15.8,2.3,23.7c2.1,18.3,3.8,36.7,7.2,54.8
		c0.6,3,2.2,4.9,5.1,5.4c8.1,1.4,16.2,3.3,24.3,4.8c12.4,2.3,24.8,5.1,37.4,5.9c3.8,0,7.7,0,11.5,0c13.3-8.1,27.3-14.7,40.9-22.1
		c2.5-1.4,3.3-2.8,3.4-5.7c0.2-4.5-2-8.5-1.9-12.8c0.2-10.9-2.2-21.6-2.9-32.5c-0.8-13.3-2.3-26.6-3.3-39.9c-0.3-4.7-0.3-9.4-1-13.9
		c-2.3-14.1-1.5-28.4-3.3-42.5c-0.7-5.8,0.3-11.6-0.9-17.5c-2.2-10.8-0.6-21.8-1.7-32.8c-1.2-12.5-1.5-25.1-1.8-37.6
		c-0.5-20.1-0.7-40.1-1.8-60.2c-1.1-21.1,0.5-42.3-0.9-63.5c-1.1-16.7-0.5-33.5-0.8-50.2c-1.1-75.6,0.8-151.2-1.1-226.8
		c-0.3-9.9,0.1-19.8-0.1-29.7c-0.5-34.2,1-68.3-0.8-102.5c-0.5-10.4-0.1-20.8-0.9-31.2c-0.5-6.9,0.3-13.9-0.2-20.8
		c-0.4-4.9,0.9-7.5,6-7.6c2.2,0,3.4-0.9,2.9-3.2c-0.9-4.5-1.1-9.2-1.8-13.7c-0.8-5.5,0.1-11.2-1-16.6c-2-10.3-1.3-20.8-3.4-31
		c-1.1-5.1-0.1-10.3-1-15.3c-2.1-10.6-2.1-21.3-3.2-31.9c-0.5-4.9-0.4-10-1.3-14.8c-1.8-10.4-1.9-21-3.1-31.5
		c-1.1-10.6-2.3-21.3-2.8-32.1c-0.1-2.5-2-5-0.3-7.5c-2-1.8-4.5-1.2-6.8-1.2c-17-0.2-34.1,0.3-51-1.8c-2.2-0.3-4.3-0.6-4.4-3.3
		c-0.1-4.4-1.3-8.8-1.4-13.1c-0.2-7.6-0.9-15.1-1.6-20.5c1.6,7.1,5.5,15.6,9,24.2c0.9,2.3,2.7,3.4,5.1,3.6c13.4,0.9,26.7,2.4,40,3.7
		c7.3,0.7,14.6,1.2,21.9,2.5c2.9-0.8,4.7-1.1,3-5.4c-1.9-4.9-3.8-10.2-4.7-15.4c-1.5-8.9-3.9-17.6-6.9-25.9
		c-4.5-12.6-4.4-25.4-5.6-38.3c-0.8-8.6,0-17.2-0.8-25.9c-1.1-11.7,0-23.4-0.9-35.2c-0.6-8.8-0.3-17.8,0.5-26.8
		c0.9-10.9,0.5-22,0.9-32.9c0.4-11.2,1.6-22.4,2.2-33.6c0.2-3.7,0.2-7.5,0.9-11.2c1.7-8.2,2.3-16.5,3.2-24.8
		c0.3-2.9,0.1-5.9,2.6-8.1c1.3-1.5,1.2-3.3,0.9-5.1c-0.5-3.2-0.2-6.5-0.5-9.7c-0.9-11.2,1.2-22.3,1-33.4c-0.1-2.8-0.5-5.6-0.2-8.4
		c1.8-13.7,2.7-27.6,3.4-41.3c0.7-13.2,3.1-26,4.5-39c1.2-10.7,3.4-21.4,6-32c6-24.4,12.4-48.4,23.7-71c-4.1,8.7-5.3,18.2-7.9,27.3
		c-3.3,11.1-5,22.7-7.1,34.2c-3.4,18.2-6.4,36.5-8.8,54.9c-1.9,14.9-2.6,29.9-4.3,44.8c-1.3,11.2-2.3,22.6-2.1,33.9
		c0.2,11.7-2.3,23.2-2.3,34.8c0,10.6-2,21.1-0.8,31.7c0.1,0.9-0.8-0.1-1.1,0.3c0.3,3.8,0.5,7.6,1,11.3c1.4,9.5,2.9,19,4.4,28.5
		c1.3,8.7,2.9,17.3,3.8,26c0.5,4.8,0.9,9.8,1.9,14.5c2.1,9.6,2.8,19.4,3.8,29.1c0.8,7,1.2,14.2,2.2,21.2c1.8,11.7,2.6,23.5,3.8,35.2
		c1.6,14.7,2.4,29.5,3.7,44.2c1.1,12.7,1.8,25.5,2.6,38.3c0.6,9.7,1.2,19.5,1.7,29.2c0.8,13.5,1.6,27,2.7,40.5
		c0.9,11.6,0.6,23.3,1.8,35c1,9.7,0.3,19.6,1,29.4c0.7,9.6,0.2,9.6,9.8,9.5c3.3,0.5,6.7,0.6,10.1,0.6c16.3,0,32.6,0,48.9,0
		c6.9,0,13.8,0.4,20.7-0.5c2.1,0,4.1-0.2,6.2,0C1279.4,1062.1,1280.4,1061.1,1280.1,1058.2z"/>
	<g>
		<path class="st5" d="M962.1,596.4c-0.1,0.1-0.2,0.1-0.3,0.1c-0.6,0.1-1.1-0.2-1.7-0.3c0.6,0.6,1.2,1.3,1.7,2
			C961.7,597.6,961.7,597,962.1,596.4z"/>
		<polygon class="st5" points="962.4,599.6 962.4,599.6 962.4,599.6 962.4,599.5 		"/>
		<path class="st6" d="M958,341.1C958,341.1,958,341.1,958,341.1L958,341.1c1.7,0.4,2.2,2.8,4.3,2.6c0,0.1,0,0.2,0.1,0.4
			c0.1,0,0.3-0.1,0.4-0.2c2.8-5,4.8-10.3,5.7-16.1c0.1-1.1-0.7-1.8-1.2-2.7c-4.3-6.4-8.5-12.9-12.8-19.3c-0.3,0-0.5-0.1-0.8-0.2
			c-3.8,0-7.6,4-11.5,0.3c-2,0-4.1-0.1-6.1-0.1c-1,3.2-4.6,5-4.7,8.7C940.3,323.2,948.4,332.9,958,341.1z"/>
		<path class="st7" d="M953.6,305.6c-3.9-2.3-7.7,0.9-11.5,0.3C946,309.5,949.8,305.6,953.6,305.6z"/>
		<polygon class="st8" points="918,560.5 918,560.5 918,560.5 		"/>
		<path class="st9" d="M949.6,622.5c-6.7-6.4-12.6-13.6-19.9-19.4c-0.8,1.6-2.7,2.3-1.9,5.1c0.8,3.2,0.7,6.5,2.5,9.7
			c1.4,2.6,1.4,6.3,1.2,9.6c-0.1,1.4-0.7,3.4,1.7,3.9c0.2-1.3-0.2-3.5,2.1-1.2c5.3,5.2,10.5,10.4,15.9,15.5c1.2,1.2,0.5,2.6,0.7,3.9
			c0.3,0.4,0.5,0.8,0.7,1.3c0.9,1.1,2,1.3,3,0.4c0.8-0.8,0.1-1.5-0.5-2.2c-1.1-1.4-1.4-3.2-1.8-4.9c-0.6-2.4-2.1-4.8,2.1-5.8
			c1-0.2,3.9-2.2,1.7-5.2c-0.9-1.1-0.8-3.4-0.1-5.1c0,0,0,0,0,0C953.3,628,951.9,624.6,949.6,622.5z"/>
		<path class="st10" d="M951.2,645.7c-5.4-5-10.7-10.3-15.9-15.5c-2.3-2.3-1.9-0.1-2.1,1.2c0.9,1.9,0.6,3.7-0.8,5.3
			c1.1,0.8,2.7,0.9,2,3.1c-0.6,2,0.4,4.3,1.4,6.2c2.7,5.2,3.2,11,5.2,16.3c-1.3,1.8-0.3,3.2,1,4.4c0.9,1.8,1.8,3.6,3.5,0.5
			c0.8-1.4,1.3-2.9,1.9-4.4c1.6-4.1,1.3-9,5.1-12.1c-0.5-0.4-0.7-0.8-0.7-1.3C951.8,648.4,952.5,646.9,951.2,645.7z"/>
		<path class="st8" d="M962.4,599.6C962.4,599.6,962.4,599.6,962.4,599.6C962.4,599.6,962.4,599.6,962.4,599.6
			c-0.3-0.5-0.5-0.9-0.6-1.4c-0.5-0.7-1.1-1.3-1.7-2c-0.4-0.1-0.8-0.2-1.2-0.2c-7.7-8-15.2-16.1-23-24c-3.4-3.4-6.9-6.8-10.4-10.2
			c-2.2-2.1-4.4-4.3-6.4-6.5v0c-0.2-1.4-1.5-1.7-2.4-2.3c0.5,2.5,0.9,5,1.4,7.5c0,0,0,0,0,0c2.1,1.3-0.1,3,0.4,4.4
			c2.4,7.1,3.3,14.4,4.9,21.6c1.2,5.6,0.6,12.6,6.4,16.6c7.3,5.8,13.2,13,19.9,19.4c2.2,2.1,3.7,5.5,7.5,5.5c0,0,0,0,0,0
			c0,0,0,0,0,0c1.5-6.5,2.9-13,4.4-19.6C961.4,605.4,963,602.6,962.4,599.6z"/>
		<path class="st11" d="M962.4,599.6L962.4,599.6C962.4,599.6,962.5,599.6,962.4,599.6C962.4,599.6,962.4,599.6,962.4,599.6
			C962.4,599.6,962.4,599.6,962.4,599.6L962.4,599.6z"/>
		<path class="st12" d="M966.8,580.1c-1.6,0.1-2.7-0.1-3.8-1.3c-0.8-1-1.4-2.3-2.4-3.1c-5-3.9-8.6-9.1-13.3-13.2
			c-3.4-3.3-6.9-6.7-10.3-10c-7.2-7-14.4-14-21.6-21c-2.1,4.4-2.8,8.5-0.9,13.4c0.9,2.3,3.1,5.1,1.9,8.1c1,0.6,2.2,0.9,2.4,2.3
			c2.1,2.2,4.2,4.4,6.4,6.5c3.5,3.4,7,6.7,10.4,10.2c2.1,2.1,4.3,4.3,6.4,6.5c2.1,2.2,4.2,4.4,6.3,6.6c2.1,2.2,4.2,4.4,6.2,6.6
			c1,1.1,2.1,2.2,3.1,3.3c0.3,0.3,0.5,0.5,0.8,0.8c0.2,0.2,0.3,0.5,0.5,0.7c0.4,0.5,0.9,1.1,1.4,1.6c0.4,0.3,0.7,0.7,1.1,1
			c0.2,0.1,0.3,0.3,0.5,0.4c0.2,0.1,0.3,0.1,0.5-0.1c0.3-0.3,0.4-0.6,0.5-1c0.2-0.8,0.1-1.6,0.3-2.4c0.2-0.9,0.4-1.7,0.5-2.6
			c0.4-1.7,0.7-3.5,1.1-5.2c0.3-1.4,0.6-2.7,0.9-4.1c0.1-0.7,0.3-1.4,0.4-2.1C966.6,581.4,966.9,580.7,966.8,580.1z"/>
		<path class="st13" d="M981.9,500.4c-0.9-0.6-0.6-1.6-0.8-2.4c-1.4-7.4-2.9-14.9-4.3-22.3c-18.2-18.1-36.3-36.1-54.5-54.2
			c-0.8,0.2-1.3,0.7-1.4,1.5c-0.8,5.4-1.5,10.8-2.2,16.2v0c3.6,3,5.6,7.4,9.2,10.5c8.6,7.3,16.1,15.8,24.1,23.7
			c9.7,9.6,19.2,19.5,29,29c0,0,0,0,0,0c0,0,0,0,0,0c0.7,0.5,1.3,1.1,0.9,2.1c0,0,0,0,0,0c1-1.2,0.7-2.7,0.8-4.1
			C982.5,500.4,982.2,500.4,981.9,500.4z"/>
		<path class="st14" d="M964.4,405.8L964.4,405.8c0.9-0.4,0.6-1.2,0.8-1.8c0-4.6,0.1-9.2-2.5-13.3c-0.9-4.9-1.7-9.9-2.8-14.8
			c-1.2-5.1-0.7-10.7-4.1-15.2c-6.4-4.9-11.4-11.3-17.3-16.8c-5.5-5.2-10.6-10.8-15.9-16.3c-2.5-0.7-2.2,2-3.4,2.9
			c1.5,6,3.9,11.6,7.1,16.8c2.5,5.6,6.2,10.7,4.6,17.6c-0.5,2.1-2.3,4.6-0.5,7.1c10.4,10.5,20.7,20.9,31.1,31.4
			C962.3,404.2,963.4,404.9,964.4,405.8z"/>
		<path class="st15" d="M952.7,415.5c4.5,3.8,8.7,7.8,12.4,12.3c0,0,0,0,0,0c0,0,0,0,0,0l0,0c0.8,1.4,1.1,3.1,2.9,3.7v0
			c1.5-0.9,0.9-2.4,0.7-3.5c-1.3-7.4-2.8-14.8-4.3-22.2v0c-1-0.8-2.1-1.6-3-2.5c-10.4-10.4-20.7-20.9-31.1-31.4
			c-2.1,5.7-2.4,11.7-3.3,17.7C935.1,398.6,943.8,407.1,952.7,415.5z"/>
		<path class="st16" d="M962.3,344c0-0.1,0-0.2-0.1-0.4c-2.1,0.2-2.6-2.1-4.3-2.6v0c0,0,0,0,0,0c-9.6-8.2-17.6-17.9-26.7-26.6
			c-3.7,3.9-7.3,7.8-8.8,13.1v0c5.3,5.5,10.3,11.1,15.9,16.3c5.9,5.5,10.9,11.9,17.3,16.8c2-4.9,4.3-9.8,5.1-15.1
			c0.5-0.4,1.1-0.8,1.6-1.2C962.4,344.3,962.3,344.1,962.3,344z"/>
		<path class="st17" d="M981.1,502.5C981.1,502.5,981.1,502.5,981.1,502.5C981.1,502.5,981.1,502.5,981.1,502.5
			c-9.8-9.6-19.3-19.4-29-29c-8-7.9-15.5-16.4-24.1-23.7c-3.6-3.1-5.6-7.5-9.2-10.5c-3,10.5-4.1,21.3-5.8,32c1-0.6,1.3-0.1,2.1,0.6
			c7.2,7.3,15,14,21.6,21.8c3.8,4.5,8.2,8.3,12,12.7c1,1.2,2.6,1.8,4,2.7c0,0,0,0,0,0c0,0,0,0,0,0c-0.1,2,1.3,2.9,2.7,3.8
			c5.8,6.4,11.8,12.5,18.2,18.2c1,0.8,1.8,1.4,3.1,1.4c0,0,0,0,0,0c0,0,0,0,0,0c1.8-9.3,5.3-18.2,5.4-27.8c0,0,0,0,0,0c0,0,0,0,0,0
			C982.4,503.6,981.8,503,981.1,502.5z"/>
		<path class="st17" d="M972.1,555.2c-0.4-1.7,1.4-3.7-0.8-5.1c-5.6-6-11.6-11.4-17.7-16.9c-11.7-13.4-25.2-25-37.4-37.9
			c-2.2-2.3-5.3-3.9-6-7.4c-0.9,4.7-1.7,9.4-2.6,14.1c-0.1,0.5,0.5,1.6-0.7,1.5c-0.4,0-0.7-0.9-1-1.3c0.5,3.9,2.3,7.4,3.1,11.3
			c0.4,2.1-1.2,3.8-0.1,5.8c2.2,4.1,3.3,8.8,6.8,12.1v0c0,0,0,0,0,0c7.2,7,14.4,14,21.6,21c3.4,3.3,6.9,6.7,10.3,10c0,0,0,0,0,0
			c4.7,4.2,8.3,9.4,13.3,13.2c0,0,0,0,0,0c1.9,1.7,2.5,5.3,6.2,4.4c0.3-1.4,0.7-2.9,1-4.3c1.6-6.5,1.9-13.3,4.4-19.6c0,0,0,0,0,0
			C972.2,555.9,972.2,555.5,972.1,555.2z"/>
		<path class="st18" d="M976.6,532.4c-1.2,0-2.1-0.5-3.1-1.4c-6.5-5.7-12.4-11.9-18.2-18.2c-1.4-0.9-2.8-1.8-2.7-3.8c0,0,0,0,0,0
			c0,0,0,0,0,0c-1.3-0.9-3-1.5-4-2.7c-3.8-4.4-8.2-8.3-12-12.7c-6.6-7.8-14.4-14.5-21.6-21.8c-0.7-0.7-1.1-1.2-2.1-0.6
			c-0.9,5.6-1.9,11.1-2.8,16.7c0.8,3.5,3.9,5.1,6,7.4c12.2,12.9,25.7,24.5,37.4,37.9c6.1,5.5,12.2,10.9,17.7,16.9
			c2.2,1.4,0.4,3.4,0.8,5.1c0.1,0.3,0.1,0.7,0.2,1c0,0,0,0,0,0c1.7-2.5,1-5.4,1.6-8.1c0,0,0,0,0,0
			C977.4,543.4,975.8,537.7,976.6,532.4C976.6,532.4,976.6,532.4,976.6,532.4z"/>
		<path class="st17" d="M972,444.1c-1-4.2,0.1-9.4-4.1-12.6c-1.7-0.6-2.1-2.3-2.9-3.7c0,0,0,0,0,0c0,0,0,0,0,0
			c-3.7-4.6-7.9-8.6-12.4-12.3c-8.9-8.3-17.6-16.9-25.8-25.9c-1.4,1-0.6,2.5-0.6,3.8v0c-0.3,0.5-0.8,0.9-0.9,1.5
			c-1.3,7.6-2.6,15.1-3.6,22.7c-0.2,1.2-1.7,3,0.5,4c18.2,18.1,36.3,36.1,54.5,54.2c0.3-0.3,0.5-0.6,0.8-1
			C975.8,464.5,974.3,454.2,972,444.1z"/>
	</g>
</g>
<g>
	<path class="st2" d="M2354.5,1896.5c-0.1-6-1.9-11.7-4.9-16.8c-5.2-8.8-11.9-16.8-16.6-25.9c-9.1-17.5-17.3-35.5-23.9-54.2
		c-1.6-4.4-2.8-9-5-13.3c-2.2-4.3-3.8-9-5.8-13.5c-3.8-8.7-6.2-18-8.9-27.2c-5.3-17.8-10.7-35.5-15.6-53.4
		c-4.8-17.6-9.2-35.3-13.6-53c-3.9-15.5-7.8-30.9-11.3-46.5c-5-22.2-9.7-44.5-14.6-66.7c-4-18.4-8.2-36.8-12-55.3
		c-5.1-24.9-9.8-50-14.6-74.9c-2.8-14.4-5.7-28.8-8.4-43.2c-3.4-18-6.6-36.1-10-54.1c-2.8-14.8-5.4-29.7-8.4-44.5
		c-3.9-19.7-7-39.6-10.5-59.4c-2.9-16.6-6.1-33.1-8.9-49.7c-3.1-18.2-6-36.5-9.1-54.7c-2.2-12.8-4.7-25.4-6.9-38.2
		c-3.1-18.1-5.9-36.2-8.9-54.2c-4.3-25.2-8.8-50.5-13.1-75.7c-3.1-18.4-6.6-36.7-10.1-55c-2.8-15.1-6.4-30-9.9-45
		c-5.8-24.1-13.1-47.6-21.7-70.8c-5.3-14.3-11.5-28.3-18.4-41.9c-4.1-8-8.5-16-13.3-23.6c-5-7.8-10.6-15.2-16.1-22.7
		c-6.8-9.3-15.1-16.5-24.9-22.1c-3.7-2.1-4.3-3.9-3.1-7.5c5.2-16.1,10.2-32.2,15.4-48.3c7.9-24.6,15.8-49.3,23.6-73.9
		c4.4-13.9,8.8-27.8,13.3-41.7c0.5-0.2,0.9-0.6,1.5-0.7c17.5-3.4,34.5-8.2,50.6-16c12.7-6.1,24.9-13.1,35-23
		c2.3-2.3,4.4-4.7,3.7-8.4c-0.5-3-1-6-1.5-9.1c-2.7-16.5-5.5-33.1-7.3-49.7c-0.8-7.6-2-15.1-7.3-21c-8.9-9.7-18.6-18-30.9-23.6
		c-14-6.4-27.5-14.3-40.8-22.3c-2.4-1.4-5-1.4-7.7,0.5c-6.5,4.4-13.1,8.9-20,12.7c-12.8,7.1-26.2,13-40.1,17.8c-7.9,2.7-16,4.7-24,7
		c-4.7,1.4-9.6,2.3-14.4,3.2c-4.9,0.9-9.7,2.3-14.7,3c-4.6,0.7-9.4,0.6-13.9,1.5c-9.1,2-18.5,0.4-27.6,2.7
		c-6.4,1.6-12.5-2.5-18.9-1.7c-5.7,0.7-11.3-1.1-16.9-1.9c-9.8-1.3-19.6-3.4-29.3-5.5c-13.6-2.9-26.7-7.1-39.6-12.1
		c-10.8-4.2-21.5-8.8-31.5-14.9c-5.9-3.6-11.6-7.4-17.4-11.3c-3-2.1-6.3-2.8-9.8-1c-3.6,1.8-7.4,3.5-10.9,5.4
		c-16.7,9.3-34.7,16.1-50.2,27.2c-8.2,5.9-15.4,13.1-18.6,23.2c-2.3,7.4-2.4,15.2-3.6,22.7c-2.2,13.7-3.5,27.5-6.1,41.1
		c-0.9,4.8-3.4,10.3,2.5,14.4c2,1.4,4.1,2.7,6,4.3c12.6,10.3,27,17.3,42.1,23c12.6,4.8,25.5,8.7,38.7,11.3c2.7,0.5,3.9,1.9,4.7,4.3
		c2.8,9,5.7,17.9,8.6,26.8c7.5,23.6,15.2,47.2,22.5,70.9c4,13.1,9.1,25.9,12.5,39.3c2.1,8.4,5.3,16.5,8.1,24.7
		c0.9,2.5,0.9,4.3-2.1,5.6c-2.9,1.2-5.9,2.7-8.2,4.8c-11.2,10.6-22.4,21.3-30.7,34.5c-7.9,12.7-15.2,25.8-21.7,39.3
		c-6.7,14.1-12.8,28.3-18,43c-4.5,12.7-8.6,25.5-12.5,38.3c-6.4,21.1-11,42.7-15.5,64.2c-3.4,15.8-5.9,31.8-8.8,47.7
		c-1.8,9.9-3.6,19.8-5.3,29.7c-3.4,20.4-6.5,40.8-9.9,61.2c-2.5,14.8-5.3,29.5-7.8,44.2c-3.6,21.2-7.1,42.5-10.8,63.8
		c-2.8,15.9-5.8,31.7-8.6,47.6c-3.2,18.2-6.3,36.4-9.5,54.6c-2.9,16.5-6.1,32.9-9,49.3c-2.9,16.2-5.6,32.4-8.6,48.6
		c-2.6,14.3-5.5,28.6-8.2,42.8c-3.4,18-6.7,36-10.3,54c-4.4,22.1-9.1,44.1-13.5,66.2c-5,25-10.2,50-15.9,74.9
		c-4.6,20.1-8.9,40.2-13.6,60.2c-3.2,13.8-6.7,27.6-10.3,41.4c-5.5,21.2-10.4,42.5-16.9,63.4c-6.6,21.1-10.3,43.1-20.8,62.9
		c-2,3.7-3.1,8-4.4,12.1c-3.8,11.9-8.5,23.4-13.4,34.7c-4.3,9.8-8.2,19.8-13.8,29c-4,6.4-7.4,13.3-11.9,19.4
		c-2.5,3.5-5.3,6.5-6.9,10.8c-5.4,15.1-5.8,29.8,0.9,44.6c4.7,10.4,11.8,18.8,22.1,23.8c8.6,4.2,17.4,7.9,27.1,8.9
		c6.5,0.7,12.9,1.9,19.3,2.6c10.8,1.3,21.4-2.1,32.3-2.1c4.1,0,8.5-1.1,12.8-1.8c7.9-1.2,15.8-3,23.8-4c12.7-1.7,24.1,2.7,35.2,8.2
		c13.3,6.6,27.6,9.9,42.5,10.2c4.1,0.1,8.2-0.2,12.3,0.1c15.4,1,30.4-1.5,45.4-4.5c7.5-1.5,14.8-3.5,22.3-5.2
		c8.9-2,17.7-4.4,26.6-5.6c8.2-1.1,16.6-1.8,24.7,0.8c10.6,3.4,20.9,7.7,31.4,11.4c11.3,4,22.8,7.5,34.5,10.2c7,1.6,14.3,3,21.2,3.1
		c14.4,0.3,28.8,1.4,43.3-1c12.9-2.1,25.7-4.6,38.3-8.3c13.1-3.8,25.5-9.5,38.4-13.9c5.8-2,11.9-4.2,17.5-3.9
		c6.7,0.3,13.7,1.4,20.5,3.2c8.2,2.2,16.6,3.7,24.8,5.7c7.7,1.9,15.6,3.1,23.3,4.8c5.9,1.3,12.2,2.6,17.9,2.7
		c17.8,0.1,35.8,2.1,53.6-2.7c8.6-2.3,16.5-5.4,24.5-9.1c6-2.7,11.9-5.8,18.7-6.4c15.4-1.3,30.3,3.1,45.4,4.8
		c9.2,1,18.3,2.3,27.6,3.1c5.6,0.5,10.9-1.3,16.4-1.6c9.7-0.6,19.1-2.2,28.3-5.3c12.6-4.2,22.1-12.2,29.7-22.9
		c1.3-1.9,2.4-3.9,2.6-6.3c0.7-1.9,2.2-3.2,2.8-5.3C2355.1,1913.2,2354.6,1904.8,2354.5,1896.5z"/>
	<path class="st19" d="M2056.8,465.4c0.8-0.9,1.9-0.1,2.9,0l0,0h0c5.5,1.9,10.6-1.3,15.5-2.4c13.9-3.2,27.3-8.5,40.1-15.2
		c1.7-0.9,3.5-1.4,5.1-2.5c5.5-3.9,11.4-7.2,16.8-11.4c5.1-3.9,11-7.8,9.3-15.8c-1.2-6-2.8-11.9-3.2-18c-0.1-1.4,0.3-3.3-1.3-4.5
		c-1.4-1.4-1.1-2.7,0-4.1c-1.4-3.1-1.3-6.6-1.7-9.8c-1-6.6-0.4-13.5-4.2-19.5c0-0.1-0.1-0.1-0.1-0.2c-0.1-0.2-0.1-0.5,0-0.7
		c0,0,0-0.1,0-0.1c3-6.3-0.4-11.2-3.8-15.9c-1.5-2.1-3.4-4-5.3-5.8c-5.5-5.1-10.4-10.7-17.2-14.5c-5-2.8-10.6-4.4-15.4-7.4
		c-10.9-6.9-22.9-11.9-33.6-19.1c-1.7-1.1-3.7-1.2-5.4-0.1c-5.1,3-10.2,6.3-15.1,9.5c-8.1,5.3-16.6,9.2-25.2,13.2
		c-7.1,3.3-14.5,6.2-22,8.8c-3.9,1.3-7.7,3.1-11.7,3.9c-6.5,1.3-13,2.8-19.1,5.5c-2.1,1.7-4.6,0.4-6.9,0.8c0,0,0,0,0,0c0,0,0,0,0,0
		c-6.7,1.6-13.8,1.6-20.4,3.6c-2.8,1.7-5.8,0.6-8.7,0.8c0,0,0,0,0,0c0,0,0,0,0,0c-0.4,0.4-0.7,0.7-1.1,1.1c-0.2,0.1-0.4,0.2-0.6,0.2
		c-4.2,1.5-8.6,0.2-12.9,0.6c-1.9,0.2-3.8,0-5.7,0c-6.3,0.8-12.5,2.1-18.6-0.8c-4.9,1.5-9.9,1.3-14.8,0c-0.8-0.1-1.5-0.2-1.9-1
		c-2.6-0.2-5.4,1-7.8-0.7c0,0,0,0,0,0c-2.2,0.3-3.4-2.6-5.9-1.9c-4.4,1.2-8.7-0.8-12.9-1.5c-8.3-1.5-16.5-3.4-24.6-6.2
		c-5.2-1.8-10.8-2.5-16-4.6c-8.3-3.4-16.8-6.5-25.2-9.7c-0.2-0.1-0.4-0.1-0.6-0.1c-1.2,0-3,1.3-2.9-1.5c-1-0.5-2-1.1-3.1-1.4
		c-2.6-0.7-5.8-0.3-6.3-4.2c0-0.3-1-0.4-1.5-0.7c-4-2.6-9.2-3.3-12.3-7c-3.1-3.8-7.8-4.3-11.4-6.8c-0.8-0.5-1.4-0.9-2.3-0.2
		c-4.6,3.2-10.4,4.1-14.9,7.6c-4.1,3.1-9.4,3.7-13.5,6.7c-3.9,2.9-8.2,4.8-12.6,6.7c-4.2,1.9-8.8,3-12.5,5.6
		c-5.9,4.1-11.8,8.5-16.5,14.1c-2,2.3-5.3,3.4-6.3,6.2c-2.2,6.4-6,12.3-5.8,19.5c0.1,2.7,0.3,5.6-0.5,8.2
		c-2.3,7.9-2.5,16.2-4.1,24.2c-1.6,8.2-1.9,16.7-3.8,25c-0.6,2.6,0,5,2,6.2c5.2,3.3,9.5,7.8,14.8,10.7c6.4,3.5,12.7,7.1,19.3,10.4
		c16.8,8.3,34.4,13.6,52.6,17.3c2.3,0.5,5.1,1,5.7,3.8c1.6,7.8,5.3,14.8,7.3,22.5c0.6,2.3,1.1,4.5,0.8,6.8c0,0.1,0,0.3-0.1,0.4
		c1.9,0.7,2.6,2.9,2.7,4.2c0.1,3.3,1.6,6.1,2.6,9c2.1,6.1,4.7,12,6.5,18.1c1.5,5,2.2,10.2,4.4,15.1c1.8,3.9,3.6,8.1,4.3,12.1
		c1.2,6.7,4,12.8,5.6,19.4c2.7,11.6,7.8,22.6,11.1,34.2c2.2,7.9,4.8,15.7,7.3,23.5c1,3.3,0.2,5.8-3.1,7c-2.9,1.1-5.3,2.7-7.5,4.9
		c-2.5,2.5-4.8,5.5-7.5,7.4c-13.5,9.5-21.3,23.5-29.8,36.7c-3.4,5.3-6.2,11.4-9.4,17c-2.8,5-4.7,10.4-7.4,15.3
		c-4.5,8.1-6.6,17.3-11.1,25.4c-0.9,1.7-0.9,3.8-1.9,5.7c-2.2,4.1-4.8,8.4-5.2,12.8c-0.7,8.5-5.8,15.4-7.3,23.8
		c-0.9,5.1-3.5,10.4-5.2,15.7c1,1.2,1.9,2.3-0.2,3.3c-2.7,6.4-3.1,13.4-5.8,19.8c-0.9,2.2-0.4,5-0.9,7.6c-1,4.7-3.4,9-3.8,13.8
		c-0.9,10.6-3.1,21.1-5.8,31.2c-1.7,6.4-1.1,12.9-3.2,19c-1.3,3.6,0.6,7.5-1.6,10.7c-1.8,2.7-2,5.6-2.5,8.6
		c-0.4,2.6-0.1,5.2-0.4,7.7c-0.5,4.1-1.5,8.1-2.8,12c-1.3,4-0.3,8.6-1.9,12.2c-2.2,5.1-1.3,10.3-2.4,15.4c-1.2,5.6-2.9,11.3-3.1,17
		c-0.2,4.8-3,8.9-2.6,13.8c1.2,1.4,1.4,2.8,0,4.2c-1.4,6.1-2.5,12.2-3.3,18.5c-0.2,1.5,0.3,3.2,0.2,4.5c0,0.2-0.1,0.4-0.1,0.6
		c-0.1,0.2-0.1,0.4-0.3,0.5c-4.8,6-2.1,13.3-4.1,19.9c-1.5,4.9-2.2,10.4-3.1,15.6c-0.9,5-1.1,10.1-2.4,15c-1.3,5-2,10.2-2.6,15.4
		c-0.6,5.4-2.1,10.7-3.2,16c-1,5.3-0.4,10.8-2,15.7c-2,6.4-3.3,12.8-3.9,19.3c-0.6,6.9-2.5,13.5-3.2,20.3c-0.5,4.9-2.3,9.8-2.9,14.8
		c-1,7.1-2.5,14.1-3.6,21.1c-1.2,8.2-3.7,16.1-4.1,24.5c-0.2,5.1-1.8,10.3-3,15.4c-1.4,5.9-2.2,12-3.4,17.9
		c-1.3,6.3-1.8,12.7-3.5,18.8c-0.7,2.4-0.9,4.9-1.4,7.3c-1.4,6.3-1.7,12.8-2.9,19.1c-1.1,6-3,11.8-4.3,17.7
		c-0.6,2.7-1.8,6.2-1.2,8.2c1.1,4.1-1.1,7.4-1.5,10.9c-0.5,5.3-2.5,10.7-3.7,16c1.5,1.4,0.6,3.1,0.6,4.7c0,0-0.3,0.1-0.4,0
		c-0.2-0.2-0.3-0.4-0.5-0.6c-0.9,3.4-1.7,7-1.9,10.2c-0.4,7-3.8,13.1-4,20.3c-0.3,10.8-4.8,21-6.1,31.9c-0.7,5.8-2.3,11.9-3.7,17.8
		c-1,4.2-2.7,8.5-2.7,13.2c-0.1,3.6-0.4,7.8-1.8,11.5c-2,5.5-3.6,11-4.3,16.8c-1,8-2.5,15.8-4.9,23.5c-1.4,4.6-2.1,9.5-2.9,14.3
		c-0.8,4.4-0.6,9.2-2.4,13.1c-1.5,3.3-1.9,6.4-2.1,9.7c-0.1,1.3,0.3,2.9-0.4,3.9c-4.2,6.1-3.9,13.6-5.3,20.4
		c-1.5,6.8-2.6,14-4.6,20.6c-1.9,6.5-2.6,13.3-4.6,19.8c-0.9,2.9-1.7,5.8-2.4,8.7c-2,7.4-2.2,15.3-4.9,22.3
		c-2.9,7.4-3,15.4-5.8,22.8c-2.7,7.2-4.2,14.9-6.2,22.3c-0.9,3.5-0.1,7.4-2.1,10.5c-3.7,5.7-2.9,12.8-5.9,18.7
		c-1.2,2.3-2.6,5.1-2.3,7.4c0.7,6.2-3.3,11-4.3,16.7c-1.2,7.2-4.2,14.1-6.3,21c-1.8,5.7-2.5,12.3-6.3,17.2c-2.2,2.8-1.9,5.7-1.9,8.7
		c-0.4,1.1-0.9,2.2-1.3,3.3c-1.2-0.7-0.3-1.7-0.6-2.5c-2.6,7.1-5.2,14.1-7.8,21.2l0,0c0,0,0,0,0,0c3.3,0.8-0.4,2.2,0.5,3.2
		c-1-1-0.6-2.1-0.5-3.2c0,0,0,0,0,0c0,0,0,0,0,0c-3,3.6-2.6,8.7-5.3,12.4c3.2,0.2,0.7,2,0.9,3.1c0,0,0,0,0,0c0,0,0,0,0,0
		c-2.6,1.9-5,3.9-4.7,7.6c0.2,1.1,0.8,2.2-0.2,3.1c-0.6,0.5-1,0-1.2-0.6c-1.4,0.8-1.8,2.1-1.8,3.6c2.4,0.2,0.8,2,0.7,2.7
		c-0.2,1.2-1.1,0.7-1.6-0.1c-3.4,2-2,5.1-1.8,7.9c-0.9,1.6-1.8,3.3-2.7,4.9c0,0,0,0,0,0c-0.1,0.2-0.1,0.4-0.1,0.6
		c-1.2,0.7-1.5,2-2,3.1c-1.1-0.8-0.2-1.6-0.2-2.3c-1.2,0.1-1.8,0.8-2,1.8c1.2,1.2,1.5,2.3-0.3,3.3c-1,1.1,0,3.1-1.6,4c0,0,0,0,0,0
		c-2.9,1.6-5.5,3.3-5.3,7.2c0.1,2.1-1.6,3.1-3.1,4.3c-2.6,2.1-5.6,4-6.4,7.6c1.5,1.6,1.1,2.8-1,3.3c-2.3,2.7-1.7,5.9-1.9,9
		c-1.4,1.4-0.7,3.2-0.8,4.9c0,1.3-0.1,2.3-1.8,2c0,0.3,0,0.7,0,1c0,2.9,0,5.9,0,8.8l0.2,0.1c2.6-0.1,1.5,1.9,1.6,3
		c0.1,1.5-0.1,3.1-0.2,4.7c1.1,3.6,0.2,7.9,3.8,10.6c0-1.1,0-2.1,0-3.9c0.8,1.8,1.2,2.9,1.7,4c1.7,0.9,0.7,2.2,0.5,3.4
		c1.8,2.5,2.8,5.6,5.6,7.3c1.6-0.1,2.8,0.3,2.5,2.3c-0.4,2.7,1.2,3.5,3.5,3.8c2.3-0.8,4.1-0.6,4.5,2.4c0,0,0,0,0,0
		c0.3,0.8-0.3,1.9,1.2,2.4c5.7,2.1,11.3,4.3,16.9,6.5c1.4-1,2.8-1.5,4.1,0.1c2,0.5,4.3-0.9,6.2,0.9c1.2,0.6,3.4-1,3.5,1.8
		c4-0.1,8,0,11.7,1.7c0.2-0.1,0.4-0.2,0.6-0.2c4.4-1.5,8.9-0.2,13.3-0.6c1.6-0.1,3.2,0,4.7,0c0,0,0,0,0,0c0,0,0,0,0,0
		c3.4-0.2,6.8-0.4,10.2-0.7c2.1-0.2,4.3,0.9,6.2-0.9c0,0,0,0,0,0c0,0,0,0,0,0c0.8-1.3,2.3-1.1,3.5-1.8c0.1,0,0.1-0.1,0.2-0.1
		c2.6,0,5.3,0,7.9,0c0.9-0.3,1.8-0.6,2.6-0.9c2.3,0.4,4.8-0.9,6.9,0.8c1.1-0.8,2.8-0.5,3.6-1.8c1.4-1.3,2.9-1.3,4.3,0
		c2-0.2,3.4-1.9,5.6-1.9c6.1,0.2,12.2,0.1,18.3,0.1c1.4-1.2,2.8-2.4,3.4,0.6h0c4.4,2.2,8.7,4.5,13.2,6.3c1.2,0.5,2.6,0.6,4,1
		c4.2,1.1,7.6,3.7,11.6,5.2c10.9,4.2,21.9,5.5,33.3,5.3c14.4-0.3,29,2.1,43-3.4c1.7,0.3,3.7-0.7,5.2,0.8c1.2-0.6,2.4-1.1,3.6-1.7
		c1.4-1.4,2.8-1.3,4.2-0.1c3.3-1.2,6.6-2.3,9.9-3.5c1.4-1.4,2.9-1.4,4.3,0c2.1,0,4.3-0.7,6.1-1.2c3.3-0.9,7.1-0.6,9.8-3.2
		c-1.1,0-2.2,0.7-3.3-0.3c1.1-0.5,2.2-1.4,3.3,0.3c3.2-0.5,6.6-0.5,9.7-1.6c-0.8-0.1-1.6-0.2-2.4-0.4c1.7-0.6,3.3-1.4,4.8,0.1
		c0,0,0,0,0,0c1.5,0.3,1.9-1,2.8-1.7c7.2,0,14.4,0,21.7,0c1.4,0,2.9-0.6,4,0.9c0,0,0,0,0,0c1.4,1.5,3.2,0.1,4.9,0.7
		c5.4,2,10.1,6.1,16.4,5.4c1.9-0.1,3.3,0.3,3.4,2.5c10.9,4.8,22,9.2,34,10.5c4,0.4,7.2,3.3,11.2,3.5c1.4-0.9,2.8-1.4,4.1,0.1
		c0.5,1,1.4,0.9,2.3,0.9c2.8,0,5.6,0.1,8.4,0.1c0,0,0,0,0,0c1.2,0.1,2.7-0.9,3.5,0.8c1.1,1.6,2.7,1.8,4.6,1.8
		c9.6-0.1,19.2-0.1,28.8,0c2.2,0,4.3-0.4,6.2-1.6c0,0,0,0,0,0c2.3-2,4.6-1.2,6.9-0.2c1.4-0.9,3.3-0.4,4.5-1.6
		c1.2-1.6,2.3-1.3,3.5-0.1c3.3-0.9,6.6-2.2,10-2.4c2.7-0.2,4.8-2.4,6.8-2.1c4.5,0.6,7.7-2.1,11.5-3.2c-0.8-0.1-1.6-0.1-2.8-0.2
		c0.5-0.4,0.9-0.7,1.4-0.8c0,0,0-0.1,0-0.1c0,0,0,0.1,0.1,0.1c1.1-0.3,2.1,0.1,3,0c0.2-0.3,0.4-0.6,0.6-0.9c1.2-1.2,2.5-1.5,3.8-0.1
		c5.1-1.5,9.6-4.6,14.9-5.5c-0.6-0.2-1.8-0.2-1.4-1c0.2-0.4,1.4-2.4,2.6-0.6c3.2,0,6.5,0.1,8.7-2.9c0.1-2.8,2-1,3.2-1.1
		c-0.9,0.4-1.7,0.8-2.6,1.2c3.4,0.5,6-1.3,8.9-2.7c0,0,0,0,0,0h0c0,0,0,0,0,0c-1,0-2.1,0.7-3.7-0.6c1.7,0.2,2.8-1.6,3.7,0.6
		c0,0,0,0,0,0c0,0,0,0,0,0c3.5-1.4,7.4-0.6,10.7-2.6c2.4-1.1,4.7-1.4,7,0.1c0.5,1,1.4,0.9,2.3,0.9c2.8,0,5.5,0,8.3,0c0,0,0,0,0,0
		c0,0,0,0,0,0c0.9,0.6,1.3,2.1,2.8,1.7c1.4-1.5,3-0.7,4.9-0.6c-0.2,0.3-0.4,0.5-0.6,0.6c0.1,0,0.2,0.1,0.4,0.1c0,0-0.3,0-0.6,0
		c-0.6,0.2-1.2,0-1.6,0.2c2.5,1.3,5.2,1.6,7.9,1.7c0,0,0,0,0,0c1.1,1,2.3,1.6,3.8,1.5c0,0,0,0,0,0c-0.1-0.3-0.3-0.7-0.4-1
		c-1-0.3-2.1-0.5-3.1-0.8c1.3-0.7,2.7-2,3.1,0.8c1.7,0.9,3.9-0.7,5.5,1c0,0,0,0,0,0c1.5,1.9,3.7,2.2,5.8,2.6
		c1.8,0.3,4.3-0.9,5.4-0.1c3.6,2.9,8.2,1.6,11.8,3.7c1.5-1.2,2.9-1.4,4.3,0c3.1,2.7,7.4,0.8,10.7,2.5c0,0,0,0,0,0c0,0,0,0,0.1,0
		c1-1,1.1-1,6.3,0c-2.1,0-4.2,0-6.3,0c0,0,0,0,0,0c0,0,0,0,0,0c3.8,2.1,8.2,1.5,12.2,1.6c13.3,0.6,26.6,0.1,39.9,0.1
		c0.4-2.9,1.8-1.7,3.2-0.8c3.9,1,7-2.4,10.8-2.1c2.5,0.2,4.5-0.6,6.1-2.4c0.5-3.2,2-1.7,3.4-0.8c0.7,0,1.5,0,1.8-0.8c0,0,0,0,0,0
		c-0.4-1.9,1.2-2,2.2-2.3c0.5-0.2,0.4,0.8,0.4,1.4l0,0c0.5,0.1,1.4,0.5,1.6,0.3c3.2-3.5,7.4-5,11.7-6.3c-1.1-0.2-2.3,0.7-3.6-0.5
		c1.6-0.7,2.9-1.1,4.2,0.3c0.9-0.1,1.9,0.1,2.6-0.3c11-6.1,22.4-4.7,33.9-2.3c2-1.2,4.1-1.5,6.1,0.1c0.6,1,1.5,0.9,2.4,0.9
		c1.8,0.3,3.9-0.8,5.5,0.9c1.2-0.1,2.4-0.8,3.6,0c2.4,0,4.9,0.1,7.3,0.1c0.1,0,0.2,0.3,0.1,0.4c-0.1,0.2-0.3,0.3-0.5,0.5
		c0,0,0,0,0,0c0,0,0,0,0,0c0.7,0.2,1.3,0.5,2,0.7c6,2.2,12.7-0.8,18.5,2.6c5.2-1.3,10.4-1.4,15.6,0c0,0,0,0,0,0
		c3.8-1.6,7.6-2.4,11.7-1.7c2.1,0.4,3.6-0.7,5.1-1.8c2.1-1.9,4.5-0.5,6.7-0.8c4.5-0.6,8.7-1.4,13.1-3.5c5.3-2.6,11-4,13.7-10
		c0.9-1.3,1.5-2.9,3.5-2.6c4-4.8,8.8-8.8,13.2-13.2c-0.2-0.8-1-2-0.7-2.4c2.5-3.5,2.2-7.8,3.3-11.7c0,0,0,0,0,0c0,0,0,0,0,0
		c-1.4-5.9-1.4-11.7,0-17.6c-1.6-4.4-1.9-9.2-4.4-13.2c0.1,1.1,0.6,2.2-0.6,4c0.3-2.1-1.9-3.1-0.2-4.7
		c-6.3-10.7-14.3-20.4-19.4-31.9c0,0,0,0,0,0c0,0,0,0,0,0c0.1,1,0.5,2-0.1,2.9c-1.3-2.4-1.3-2.4,0.1-2.9c0,0,0,0,0,0l0,0
		c-2-4.2-4-8.4-5.9-12.6c0,0,0,0,0,0c-0.3-1.4-0.3-3-2.2-3.2c0.4,1.1,0.8,2.2,1.2,3.4c0.2,0,0.5,0.1,0.7,0.1
		c0.2,1.1,0.6,2.2-0.3,3.3c-0.5-1.1-1-2.2-1.5-3.3c-1.5-0.9-0.2-2.4-0.8-3.5h0l0,0c-0.7-2.7,0.4-6-2.6-8c-0.2,0.5,0.1,1.9-0.7,1.3
		c-1.3-1.1-2.3-2.7-1.2-4.6c0.3-0.9,1-1.7,0.4-2.8c-2.5-5.3-4.9-10.6-7.3-15.9c-0.2,1.1,0.6,2.2-0.4,3.6c-1-1.5-0.9-3-0.6-4.5
		c-1.2-4-0.4-8.7-3.7-12.1c0,0,0,0,0,0c0,0,0,0,0,0c0.3,1.2,0.5,2.4,0.9,4.1c-1.9-1.5-2.5-2.6-0.9-4.1c0,0,0,0,0,0l0,0
		c-1.3-5.1-2.7-10-5.8-14.7c-3.2-4.9-3.8-11.4-5.7-17.2c-1.7-5.3-3.1-10.7-4.8-15.9c-4.7-13.9-8-28.1-12.2-42.1
		c-4.3-14.3-7.6-28.9-11.6-43.3c-3.8-13.6-6.9-27.4-10.2-41.1c-1.1-4.7-1.6-9.5-3.1-14.1c-4.2-13.4-6.3-27.3-9.6-40.9
		c-3.2-13.4-6.5-26.8-8.9-40.4c-1.5-8.8-3.5-17.4-5.7-26c-1.6-6.4-1.5-13-3.9-19.4c-1.2-3.1-2.9-6.9-2.8-9.5
		c0.2-5.6-1.4-10.7-2.2-16.1c-1-7.7-3.3-15.2-4.5-22.9c-2.3-13.7-5.4-27.3-8-41c-2.3-12.3-4.8-24.5-6.9-36.8
		c-1-5.6-1.9-11.4-4.2-16.8c-1.4-1.4-1.3-2.8,0-4.2c-0.3-5.1-1.9-9.9-2.9-14.9c-2.1-10.2-3.8-20.6-5.7-30.9
		c-1.2-6.9-2.5-13.8-3.9-20.7c-1-4.9-2-9.9-2.3-14.9c-0.6-8.8-5.6-16.8-4.3-25.8c0.1-0.5,0.1-1.2-0.2-1.6
		c-3.3-4.6-0.1-11.2-4.6-15.5c2.2-6.9-1.6-13.2-2.3-19.8c-1.4-12.5-4.2-24.8-6.3-37.2c-1.2-6.7-2-13.5-3.6-20.1
		c-2.4-9.7-3-19.6-5.3-29.3c-1.9-7.8-2.4-16.2-4-24.2c-2.9-14.4-4.6-29.1-7.6-43.5c-3-14.5-4.6-29.3-7.4-43.8
		c-0.9-4.7-0.4-9.9-3-14.2c-1.2-1.5-1.4-2.9,0.1-4.3c0-1.6-0.1-3.2-0.5-4.8c-2.1-10.2-4.6-20.3-5.8-30.6c-1.3-10.7-3.5-21.2-6-31.7
		c-1.7-1.6-1.3-3.3-0.2-5.1c1.1-2.9-1.3-5.1-1.8-7.7c-1.2-7-2.9-13.9-4.3-20.8c-1.5-1.3-1.1-2.6-0.1-4c-1.5-10-4.2-19.8-6.4-29.7
		c-3.7-16.6-8.2-33-13.1-49.3c-2.1-7-4-14.2-7.7-20.8c-1.6-2.8-2.7-6.3-3.1-9.2c-0.7-4.9-3.4-8.7-4.9-13.1c-2.2-6.2-6-11.9-8.2-18
		c-2.2-6-5.1-11.8-8.2-17.2c-3.3-5.6-6.6-11.4-9.7-17.1c-5-9.2-11.3-17.5-18-25.2c-5.5-6.3-11.1-13.5-19.5-17.2
		c-2.4-1.1-4.4-3.3-6.6-4.9c-2.3-1.7-2.9-3.6-1.8-6.3c2.5-6.6,4.7-13.4,7-20c3.9-11.2,6.9-22.7,10.5-34c2.8-8.9,6.1-17.6,8.3-26.7
		c1.4-5.6,4.1-11.1,5.9-16.7c3-9.4,6-18.8,9-28.3c2.6-8.3,4.9-16.7,7.9-24.9c1.8-5,1.8-10.6,5-15c0.1-0.1,0.2-0.1,0.3-0.2
		c0.5-0.5,0.6-1.1,0.7-1.8C2057.3,466.3,2056.3,465.9,2056.8,465.4z"/>
</g>
</svg>
